<svg width="208" height="40" viewBox="0 0 208 40" fill="none" xmlns="http://www.w3.org/2000/svg">
  <path
    d="M45.8359 32.9996L45.8999 27.8476L45.8359 21.8796C45.8359 21.8796 45.9426 21.869 46.1559 21.8476C46.3799 21.8263 46.6733 21.7996 47.0359 21.7676C47.3986 21.7356 47.7933 21.709 48.2199 21.6876C48.6573 21.6663 49.0893 21.6556 49.5159 21.6556C50.4653 21.6556 51.2013 21.9703 51.7239 22.5996C52.2466 23.2183 52.5079 24.1516 52.5079 25.3996C52.5079 26.1783 52.4119 26.8236 52.2199 27.3356C52.0386 27.8476 51.7879 28.2476 51.4679 28.5356C51.1479 28.813 50.7906 29.0103 50.3959 29.1276C50.0013 29.245 49.5959 29.3036 49.1799 29.3036C48.8493 29.3036 48.4813 29.293 48.0759 29.2716C47.6706 29.2396 47.3719 29.2183 47.1799 29.2076V32.9996H45.8359ZM49.2759 28.1676C49.6173 28.1676 49.8946 28.1516 50.1079 28.1196C50.3213 28.077 50.4919 27.9916 50.6199 27.8636C50.8013 27.6823 50.9239 27.373 50.9879 26.9356C51.0519 26.4876 51.0839 25.9223 51.0839 25.2396C51.0839 24.6636 51.0519 24.221 50.9879 23.9116C50.9346 23.5916 50.8653 23.3623 50.7799 23.2236C50.7053 23.085 50.6253 22.989 50.5399 22.9356C50.4333 22.861 50.2573 22.8023 50.0119 22.7596C49.7773 22.7063 49.5053 22.6796 49.1959 22.6796C48.7799 22.6796 48.3853 22.701 48.0119 22.7436C47.6493 22.7756 47.3719 22.813 47.1799 22.8556V27.9756C47.3293 27.997 47.6066 28.0343 48.0119 28.0876C48.4279 28.141 48.8493 28.1676 49.2759 28.1676Z"
    fill="black"/>
  <path
    d="M58.5328 32.9996L61.5568 21.8796H63.4448L66.4688 32.9996H65.0928L64.2448 29.6716L64.9168 30.0556H60.1168L60.7568 29.6716L59.9088 32.9996H58.5328ZM60.7888 29.4956L60.3408 28.8716H64.6608L64.2128 29.4956L62.4048 22.4716L63.1568 23.0636H61.8448L62.5968 22.4716L60.7888 29.4956Z"
    fill="black"/>
  <path
    d="M73.2266 32.9996V21.8796H74.5706L74.5226 27.7356L74.5546 30.7436L78.8906 21.8796H80.9066V32.9996H79.5626L79.6106 27.7356L79.5786 23.1436L74.7786 32.9996H73.2266ZM76.8906 21.4156C76.1759 21.4156 75.5946 21.229 75.1466 20.8556C74.6986 20.4716 74.4586 19.869 74.4266 19.0476L75.4186 19.0156C75.4612 19.3676 75.5839 19.6503 75.7866 19.8636C75.9999 20.0663 76.3679 20.1676 76.8906 20.1676C77.4986 20.1676 77.9092 20.0663 78.1226 19.8636C78.3466 19.6503 78.4799 19.3676 78.5226 19.0156L79.3546 19.0476C79.3332 19.5916 79.2159 20.0396 79.0026 20.3916C78.7892 20.7436 78.5012 21.005 78.1386 21.1756C77.7866 21.3356 77.3706 21.4156 76.8906 21.4156Z"
    fill="black"/>
  <path
    d="M88.0094 34.6636V31.8156C88.1481 31.8156 88.2814 31.8103 88.4094 31.7996C88.5481 31.7783 88.6868 31.7303 88.8254 31.6556C88.9854 31.5703 89.1188 31.4316 89.2254 31.2396C89.3428 31.0476 89.4334 30.781 89.4974 30.4396C89.5721 30.0876 89.6254 29.6503 89.6574 29.1276L90.1374 21.8796H96.2014V31.8156H97.3054V34.6636H95.9614L95.9774 32.9996H89.3374L89.3534 34.6636H88.0094ZM90.9054 29.7036C90.8628 30.237 90.7988 30.669 90.7134 30.9996C90.6388 31.3303 90.5321 31.6023 90.3934 31.8156H94.8574L94.8894 27.3676L94.8574 23.0636H91.3854L90.9054 29.7036Z"
    fill="black"/>
  <path
    d="M105.634 33.2076C105.421 33.2076 105.197 33.181 104.962 33.1276C104.738 33.085 104.557 33.0423 104.418 32.9996L104.642 31.8796C104.727 31.901 104.882 31.933 105.106 31.9756C105.341 32.0183 105.533 32.0396 105.682 32.0396C106.034 32.0396 106.301 31.9383 106.482 31.7356C106.674 31.5223 106.845 31.1916 106.994 30.7436L103.57 21.8796H104.994L107.554 29.0796H107.602L109.73 21.8796H111.154L108.706 29.3036C108.386 30.2743 108.119 31.021 107.906 31.5436C107.693 32.0556 107.431 32.4503 107.122 32.7276C106.951 32.8876 106.722 33.005 106.434 33.0796C106.146 33.165 105.879 33.2076 105.634 33.2076Z"
    fill="black"/>
  <path
    d="M116.785 32.9996L121.313 27.4636L121.265 27.7836V27.1276L121.297 27.4476L117.137 21.8796H118.689L122.737 27.4476L118.481 32.9996H116.785ZM122.673 32.9996L122.769 27.4476L122.673 21.8796H124.017L123.921 27.4476L124.017 32.9996H122.673ZM129.905 32.9996H128.209L123.953 27.4476L128.001 21.8796H129.553L125.393 27.4476L125.425 27.1276V27.7836L125.377 27.4636L129.905 32.9996Z"
    fill="black"/>
  <path
    d="M136.93 32.9996V21.8796H138.274L138.226 27.1916L137.618 26.7436H143.506L142.898 27.1916L142.866 21.8796H144.21V32.9996H142.866L142.898 27.4796L143.506 27.9276H137.618L138.226 27.4796L138.274 32.9996H136.93Z"
    fill="black"/>
  <path
    d="M152.57 32.9996V21.8796H153.914L153.866 27.7356L153.898 30.7436L158.234 21.8796H160.25V32.9996H158.906L158.954 27.7356L158.922 23.1436L154.122 32.9996H152.57Z"
    fill="black"/>
  <path
    d="M168.617 32.9996V21.8796H169.961L169.913 27.7356L169.945 30.7436L174.281 21.8796H176.297V32.9996H174.953L175.001 27.7356L174.969 23.1436L170.169 32.9996H168.617ZM172.281 21.4156C171.567 21.4156 170.985 21.229 170.537 20.8556C170.089 20.4716 169.849 19.869 169.817 19.0476L170.809 19.0156C170.852 19.3676 170.975 19.6503 171.177 19.8636C171.391 20.0663 171.759 20.1676 172.281 20.1676C172.889 20.1676 173.3 20.0663 173.513 19.8636C173.737 19.6503 173.871 19.3676 173.913 19.0156L174.745 19.0476C174.724 19.5916 174.607 20.0396 174.393 20.3916C174.18 20.7436 173.892 21.005 173.529 21.1756C173.177 21.3356 172.761 21.4156 172.281 21.4156Z"
    fill="black"/>
  <path d="M183.72 28.3116V27.1916H187.384V28.3116H183.72Z" fill="black"/>
  <path
    d="M197.157 33.2076C196.687 33.2076 196.255 33.165 195.861 33.0796C195.477 33.005 195.135 32.9143 194.837 32.8076C194.538 32.6903 194.293 32.5836 194.101 32.4876C193.909 32.381 193.775 32.3063 193.701 32.2636L194.213 31.2396C194.287 31.2716 194.426 31.3303 194.629 31.4156C194.831 31.501 195.077 31.5916 195.365 31.6876C195.663 31.773 195.983 31.8476 196.325 31.9116C196.666 31.9756 197.013 32.0076 197.365 32.0076C198.026 32.0076 198.474 31.8476 198.709 31.5276C198.954 31.197 199.077 30.6903 199.077 30.0076C199.077 29.1116 198.901 28.493 198.549 28.1516C198.197 27.8103 197.647 27.6396 196.901 27.6396H195.413V26.5836C196.063 26.5303 196.607 26.477 197.045 26.4236C197.482 26.3703 197.829 26.285 198.085 26.1676C198.341 26.0503 198.522 25.8743 198.629 25.6396C198.735 25.3943 198.789 25.0636 198.789 24.6476C198.789 24.3063 198.757 24.0183 198.693 23.7836C198.639 23.5383 198.559 23.3623 198.453 23.2556C198.314 23.0956 198.09 22.9836 197.781 22.9196C197.471 22.8556 197.093 22.8236 196.645 22.8236C196.453 22.8236 196.261 22.829 196.069 22.8396C195.887 22.8503 195.669 22.8716 195.413 22.9036C195.167 22.925 194.847 22.9623 194.453 23.0156L194.293 21.9276C194.485 21.8743 194.719 21.8316 194.997 21.7996C195.285 21.757 195.583 21.725 195.893 21.7036C196.213 21.6823 196.501 21.6716 196.757 21.6716C197.407 21.6716 197.989 21.757 198.501 21.9276C199.013 22.0983 199.418 22.3863 199.717 22.7916C200.015 23.197 200.165 23.757 200.165 24.4716C200.165 24.9943 200.09 25.421 199.941 25.7516C199.791 26.0716 199.61 26.3223 199.397 26.5036C199.194 26.6743 198.997 26.797 198.805 26.8716C198.613 26.9356 198.469 26.9783 198.373 26.9996V27.0636C198.586 27.0956 198.81 27.1596 199.045 27.2556C199.29 27.3516 199.525 27.5063 199.749 27.7196C199.973 27.9223 200.154 28.1996 200.293 28.5516C200.431 28.9036 200.501 29.3516 200.501 29.8956C200.501 30.493 200.394 31.0423 200.181 31.5436C199.967 32.045 199.615 32.4503 199.125 32.7596C198.634 33.0583 197.978 33.2076 197.157 33.2076Z"
    fill="black"/>
  <g clip-path="url(#clip0_2210_12027)">
    <path
      d="M20.6816 4H21.4671C22.9355 4 24.3437 4.60317 25.3821 5.67683C26.4204 6.75049 27.0037 8.20668 27.0037 9.72505V11.3545C27.0037 12.8729 26.4204 14.3291 25.3821 15.4028C24.3437 16.4764 22.9355 17.0796 21.4671 17.0796H20.6816V4V4Z"
      fill="#F24D1D"/>
    <path
      d="M11.5508 7.3584L12.1822 6.87528C13.3626 5.97211 14.8416 5.5908 16.2938 5.81523C17.7461 6.03966 19.0526 6.85146 19.9261 8.07202L20.8634 9.3819C21.2966 9.98607 21.6104 10.6726 21.7868 11.4022C21.9633 12.1318 21.9991 12.8902 21.892 13.6341C21.7849 14.378 21.5372 15.0927 21.1629 15.7376C20.7886 16.3824 20.2951 16.9447 19.7106 17.3923L19.0792 17.8754L11.5524 7.35719L11.5508 7.3584Z"
      fill="#FF8577"/>
    <path
      d="M6.14355 15.6797L6.3732 14.903C6.80252 13.4509 7.77208 12.2347 9.06859 11.5219C10.3651 10.8091 11.8824 10.658 13.2866 11.1019L14.7936 11.5783C16.1978 12.0223 17.374 13.0248 18.0633 14.3655C18.7527 15.7061 18.8988 17.275 18.4695 18.7271L18.2398 19.5038L6.14355 15.6797Z"
      fill="#FFC700"/>
    <path
      d="M6.58301 25.6865L6.32081 24.9209C5.83065 23.4896 5.91043 21.9156 6.54258 20.5451C7.17474 19.1747 8.3075 18.12 9.69166 17.6132L11.1771 17.0692C12.5609 16.5622 14.0827 16.6443 15.408 17.2973C16.7332 17.9504 17.7534 19.1209 18.2442 20.5516L18.5064 21.3172L6.58202 25.6836L6.58301 25.6865Z"
      fill="#A837DD"/>
    <path
      d="M12.6963 33.4668L12.0451 33.0126C10.8278 32.1635 9.98645 30.8492 9.70626 29.3587C9.42608 27.8682 9.72999 26.3237 10.5511 25.0649L11.4323 23.714C12.2534 22.4576 13.5231 21.5893 14.9627 21.2999C16.4022 21.0104 17.894 21.3233 19.1107 22.1699L19.7619 22.6241L12.6914 33.4634L12.6963 33.4668Z"
      fill="#11A858"/>
    <path
      d="M22.0781 35.959L21.2934 35.9944C19.8264 36.0606 18.3941 35.5216 17.3114 34.4958C16.2288 33.47 15.5847 32.0415 15.5206 30.5245L15.4519 28.8966C15.3878 27.3797 15.9091 25.8985 16.9012 24.7791C17.8932 23.6596 19.2747 22.9935 20.7417 22.9273L21.5264 22.8918L22.0781 35.959Z"
      fill="#F24D1D"/>
    <path
      d="M31.0586 32.1904L30.4482 32.7016C29.307 33.6571 27.8455 34.1048 26.3852 33.9461C24.9248 33.7873 23.5852 33.0353 22.6612 31.8553L21.6694 30.5889C20.7454 29.4089 20.3124 27.8976 20.4659 26.3876C20.6194 24.8775 21.3467 23.4924 22.4879 22.5368L23.0983 22.0257L31.0586 32.1904Z"
      fill="#FF8577"/>
    <path
      d="M28.8164 6.16211L29.4861 6.58649C30.7381 7.37984 31.6341 8.65499 31.9769 10.1314C32.3197 11.6078 32.0812 13.1646 31.314 14.4592L30.4906 15.8486C29.7234 17.1432 28.4902 18.0697 27.0624 18.4241C25.6346 18.7786 24.1291 18.532 22.877 17.7387L22.2073 17.3143L28.8164 6.16211Z"
      fill="#11A858"/>
    <path
      d="M35.1396 12.54L35.4339 13.2931C35.984 14.7009 35.9707 16.277 35.3969 17.6747C34.8232 19.0724 33.736 20.1771 32.3745 20.7459L30.9098 21.3579C29.5483 21.9267 28.0241 21.9129 26.6724 21.3196C25.3208 20.7264 24.2524 19.6021 23.7023 18.1943L23.4081 17.4413L35.1396 12.54Z"
      fill="#A837DD"/>
    <path
      d="M36 22.5215L35.8033 23.3078C35.4357 24.7778 34.5183 26.0366 33.2531 26.8073C31.9879 27.5779 30.4785 27.7973 29.0569 27.4171L27.5312 27.0091C26.1096 26.6289 24.8923 25.6804 24.147 24.3721C23.4017 23.0638 23.1896 21.503 23.5572 20.033L23.7539 19.2466L36 22.5215Z"
      fill="#FEC700"/>
  </g>
  <path
    d="M47.8459 14.0649C47.5692 14.0649 47.3509 14.0033 47.1909 13.8799C47.0342 13.7566 46.9225 13.5816 46.8559 13.3549C46.7892 13.1283 46.7559 12.8583 46.7559 12.5449C46.7559 12.2316 46.7892 11.9616 46.8559 11.7349C46.9225 11.5083 47.0342 11.3333 47.1909 11.2099C47.3509 11.0866 47.5692 11.0249 47.8459 11.0249C48.1225 11.0249 48.3392 11.0866 48.4959 11.2099C48.6559 11.3333 48.7692 11.5083 48.8359 11.7349C48.9025 11.9616 48.9359 12.2316 48.9359 12.5449C48.9359 12.8583 48.9025 13.1283 48.8359 13.3549C48.7692 13.5816 48.6559 13.7566 48.4959 13.8799C48.3392 14.0033 48.1225 14.0649 47.8459 14.0649ZM47.8459 13.7049C47.9725 13.7049 48.0775 13.6899 48.1609 13.6599C48.2475 13.6299 48.3159 13.5749 48.3659 13.4949C48.4192 13.4149 48.4559 13.2983 48.4759 13.1449C48.4992 12.9916 48.5109 12.7916 48.5109 12.5449C48.5109 12.2983 48.4992 12.0983 48.4759 11.9449C48.4559 11.7916 48.4192 11.6749 48.3659 11.5949C48.3159 11.5116 48.2475 11.4566 48.1609 11.4299C48.0775 11.3999 47.9725 11.3849 47.8459 11.3849C47.7192 11.3849 47.6125 11.3999 47.5259 11.4299C47.4425 11.4566 47.3742 11.5116 47.3209 11.5949C47.2709 11.6749 47.2342 11.7916 47.2109 11.9449C47.1875 12.0983 47.1759 12.2983 47.1759 12.5449C47.1759 12.7916 47.1875 12.9916 47.2109 13.1449C47.2342 13.2983 47.2709 13.4149 47.3209 13.4949C47.3742 13.5749 47.4425 13.6299 47.5259 13.6599C47.6125 13.6899 47.7192 13.7049 47.8459 13.7049Z"
    fill="black"/>
  <path
    d="M51.2267 14.0649C50.9534 14.0649 50.7367 14.0033 50.5767 13.8799C50.4167 13.7533 50.3034 13.5683 50.2367 13.3249C50.1701 13.0783 50.1367 12.7766 50.1367 12.4199C50.1367 12.0133 50.1567 11.6699 50.1967 11.3899C50.2367 11.1099 50.3034 10.8849 50.3967 10.7149C50.4934 10.5449 50.6217 10.4216 50.7817 10.3449C50.9417 10.2683 51.1434 10.2299 51.3867 10.2299C51.4634 10.2299 51.5367 10.2299 51.6067 10.2299C51.6767 10.2266 51.7451 10.2249 51.8117 10.2249C51.8784 10.2249 51.9467 10.2266 52.0167 10.2299L51.9317 10.5799C51.9117 10.5833 51.8684 10.5866 51.8017 10.5899C51.7351 10.5899 51.6617 10.5916 51.5817 10.5949C51.5051 10.5949 51.4367 10.5949 51.3767 10.5949C51.1934 10.5949 51.0651 10.6016 50.9917 10.6149C50.9217 10.6283 50.8684 10.6566 50.8317 10.6999C50.7851 10.7499 50.7401 10.8316 50.6967 10.9449C50.6534 11.0549 50.6167 11.1899 50.5867 11.3499C50.5601 11.5066 50.5451 11.6816 50.5417 11.8749L50.4567 11.8099C50.5267 11.6733 50.6334 11.5716 50.7767 11.5049C50.9234 11.4349 51.0834 11.3999 51.2567 11.3999C51.5234 11.3999 51.7351 11.4516 51.8917 11.5549C52.0484 11.6583 52.1601 11.8016 52.2267 11.9849C52.2967 12.1683 52.3317 12.3799 52.3317 12.6199C52.3317 12.9166 52.2967 13.1733 52.2267 13.3899C52.1601 13.6066 52.0451 13.7733 51.8817 13.8899C51.7217 14.0066 51.5034 14.0649 51.2267 14.0649ZM51.2267 13.7099C51.3967 13.7099 51.5301 13.6849 51.6267 13.6349C51.7234 13.5816 51.7917 13.4766 51.8317 13.3199C51.8751 13.1633 51.8967 12.9316 51.8967 12.6249C51.8967 12.3849 51.8751 12.2033 51.8317 12.0799C51.7884 11.9533 51.7184 11.8683 51.6217 11.8249C51.5284 11.7783 51.4051 11.7549 51.2517 11.7549C51.0751 11.7549 50.9367 11.7816 50.8367 11.8349C50.7367 11.8883 50.6651 11.9783 50.6217 12.1049C50.5817 12.2316 50.5617 12.4049 50.5617 12.6249C50.5617 12.9316 50.5817 13.1633 50.6217 13.3199C50.6617 13.4766 50.7301 13.5816 50.8267 13.6349C50.9267 13.6849 51.0601 13.7099 51.2267 13.7099Z"
    fill="black"/>
  <path d="M53.5322 11.6099L53.4622 10.5249V10.4349H53.8772V10.5299L53.7972 11.6099H53.5322Z" fill="black"/>
  <path
    d="M55.4038 12.6949V12.3349H56.6488V12.6949H55.4038ZM56.1588 14.0649C55.9321 14.0649 55.7321 14.0133 55.5588 13.9099C55.3855 13.8066 55.2505 13.6433 55.1538 13.4199C55.0571 13.1933 55.0088 12.8983 55.0088 12.5349C55.0088 12.2383 55.0405 11.9916 55.1038 11.7949C55.1705 11.5983 55.2605 11.4449 55.3738 11.3349C55.4871 11.2216 55.6205 11.1416 55.7738 11.0949C55.9271 11.0483 56.0905 11.0249 56.2638 11.0249C56.3905 11.0249 56.5188 11.0333 56.6488 11.0499C56.7821 11.0666 56.8905 11.0849 56.9738 11.1049L56.9238 11.4549C56.8605 11.4483 56.7605 11.4366 56.6238 11.4199C56.4871 11.3999 56.3405 11.3899 56.1838 11.3899C56.0605 11.3899 55.9555 11.3999 55.8688 11.4199C55.7855 11.4399 55.7205 11.4733 55.6738 11.5199C55.6105 11.5899 55.5555 11.7183 55.5088 11.9049C55.4655 12.0883 55.4438 12.3083 55.4438 12.5649C55.4438 12.8016 55.4621 12.9933 55.4988 13.1399C55.5355 13.2833 55.5788 13.3933 55.6288 13.4699C55.6788 13.5433 55.7238 13.5949 55.7638 13.6249C55.7905 13.6449 55.8255 13.6633 55.8688 13.6799C55.9155 13.6966 55.9805 13.7049 56.0638 13.7049C56.1605 13.7049 56.2588 13.6933 56.3588 13.6699C56.4588 13.6466 56.5505 13.6199 56.6338 13.5899C56.7171 13.5599 56.7838 13.5333 56.8338 13.5099C56.8871 13.4866 56.9138 13.4749 56.9138 13.4749L57.0438 13.7999C57.0438 13.7999 57.0071 13.8216 56.9338 13.8649C56.8605 13.9083 56.7571 13.9533 56.6238 13.9999C56.4905 14.0433 56.3355 14.0649 56.1588 14.0649Z"
    fill="black"/>
  <path
    d="M57.8007 14.5199V13.6399C57.8374 13.6399 57.8941 13.6333 57.9707 13.6199C58.0507 13.6066 58.1174 13.5783 58.1707 13.5349C58.2041 13.5083 58.2307 13.4716 58.2507 13.4249C58.2707 13.3783 58.2874 13.3049 58.3007 13.2049C58.3174 13.1049 58.3324 12.9616 58.3457 12.7749L58.4807 11.0899H60.2507V13.6399H60.6457V14.5199H60.2307V13.9999H58.2157V14.5199H57.8007ZM58.7307 13.1099C58.7207 13.2233 58.7041 13.3216 58.6807 13.4049C58.6607 13.4883 58.6241 13.5666 58.5707 13.6399H59.8357L59.8457 12.5949L59.8357 11.4499H58.8657L58.7307 13.1099Z"
    fill="black"/>
  <path
    d="M61.7338 13.9999V11.0899H62.1488L62.1438 12.5349L62.1488 13.9999H61.7338ZM63.4538 13.9999L63.4588 12.5599L63.4538 11.0899H63.8688V13.9999H63.4538ZM61.7688 12.6949V12.3349H63.8188V12.6949H61.7688Z"
    fill="black"/>
  <path
    d="M65.8759 14.0649C65.7226 14.0649 65.5859 14.0299 65.4659 13.9599C65.3492 13.8866 65.2576 13.7816 65.1909 13.6449C65.1242 13.5049 65.0909 13.3366 65.0909 13.1399C65.0909 12.9033 65.1376 12.7183 65.2309 12.5849C65.3276 12.4483 65.4626 12.3516 65.6359 12.2949C65.8092 12.2383 66.0109 12.2099 66.2409 12.2099H66.7709C66.7709 12.0433 66.7659 11.8983 66.7559 11.7749C66.7492 11.6483 66.7226 11.5549 66.6759 11.4949C66.6426 11.4483 66.5959 11.4183 66.5359 11.4049C66.4792 11.3916 66.4192 11.3849 66.3559 11.3849C66.2259 11.3849 66.0976 11.3983 65.9709 11.4249C65.8476 11.4483 65.7342 11.4766 65.6309 11.5099C65.5309 11.5433 65.4509 11.5733 65.3909 11.5999C65.3309 11.6233 65.3009 11.6349 65.3009 11.6349L65.1559 11.3099C65.1559 11.3099 65.1876 11.2966 65.2509 11.2699C65.3142 11.2399 65.3992 11.2066 65.5059 11.1699C65.6126 11.1299 65.7309 11.0966 65.8609 11.0699C65.9942 11.0399 66.1309 11.0249 66.2709 11.0249C66.4976 11.0249 66.6776 11.0699 66.8109 11.1599C66.9442 11.2466 67.0392 11.3699 67.0959 11.5299C67.1559 11.6866 67.1859 11.8716 67.1859 12.0849V13.9999H66.9159L66.8559 13.6949H66.8259C66.7926 13.7183 66.7442 13.7516 66.6809 13.7949C66.6209 13.8349 66.5492 13.8766 66.4659 13.9199C66.3859 13.9599 66.2959 13.9933 66.1959 14.0199C66.0959 14.0499 65.9892 14.0649 65.8759 14.0649ZM65.9459 13.6999C66.0659 13.6999 66.1792 13.6833 66.2859 13.6499C66.3959 13.6133 66.4926 13.5733 66.5759 13.5299C66.6626 13.4866 66.7276 13.4516 66.7709 13.4249V12.5949C66.7276 12.5883 66.6626 12.5816 66.5759 12.5749C66.4892 12.5649 66.3759 12.5599 66.2359 12.5599C65.9259 12.5599 65.7342 12.5916 65.6609 12.6549C65.6176 12.6883 65.5842 12.7483 65.5609 12.8349C65.5376 12.9183 65.5259 13.0199 65.5259 13.1399C65.5259 13.3366 65.5576 13.4799 65.6209 13.5699C65.6876 13.6566 65.7959 13.6999 65.9459 13.6999Z"
    fill="black"/>
  <path
    d="M68.6176 13.9999V11.0899H69.0326L69.0276 12.5349L69.0326 13.9999H68.6176ZM70.3376 13.9999L70.3426 12.5599L70.3376 11.0899H70.7526V13.9999H70.3376ZM68.6526 12.6949V12.3349H70.7026V12.6949H68.6526Z"
    fill="black"/>
  <path
    d="M72.1547 13.9999V11.0899H72.5697L72.5647 12.5349L72.5697 13.9999H72.1547ZM73.8747 13.9999L73.8797 12.5599L73.8747 11.0899H74.2897V13.9999H73.8747ZM72.1897 12.6949V12.3349H74.2397V12.6949H72.1897Z"
    fill="black"/>
  <path
    d="M75.6918 13.9999L76.4168 12.8549C76.2135 12.8249 76.0435 12.7416 75.9068 12.6049C75.7701 12.4683 75.7018 12.2483 75.7018 11.9449C75.7018 11.6949 75.7518 11.5049 75.8518 11.3749C75.9551 11.2416 76.0885 11.1499 76.2518 11.0999C76.4185 11.0499 76.5985 11.0249 76.7918 11.0249C76.8718 11.0249 76.9551 11.0266 77.0418 11.0299C77.1318 11.0333 77.2201 11.0383 77.3068 11.0449C77.3935 11.0516 77.4735 11.0583 77.5468 11.0649C77.6201 11.0683 77.6835 11.0733 77.7368 11.0799C77.7901 11.0833 77.8251 11.0866 77.8418 11.0899L77.8318 12.6049L77.8568 13.9999H77.4418V12.8299C77.3651 12.8399 77.2718 12.8483 77.1618 12.8549C77.0551 12.8616 76.9435 12.8666 76.8268 12.8699L76.1768 13.9999H75.6918ZM76.8068 12.4949C76.9035 12.4949 77.0068 12.4916 77.1168 12.4849C77.2268 12.4749 77.3351 12.4633 77.4418 12.4499V11.4249C77.3618 11.4149 77.2668 11.4033 77.1568 11.3899C77.0468 11.3766 76.9185 11.3699 76.7718 11.3699C76.6651 11.3699 76.5735 11.3766 76.4968 11.3899C76.4201 11.4033 76.3618 11.4199 76.3218 11.4399C76.2585 11.4699 76.2085 11.5266 76.1718 11.6099C76.1385 11.6933 76.1218 11.8033 76.1218 11.9399C76.1218 12.0433 76.1301 12.1316 76.1468 12.2049C76.1635 12.2749 76.1968 12.3316 76.2468 12.3749C76.2968 12.4183 76.3685 12.4499 76.4618 12.4699C76.5551 12.4866 76.6701 12.4949 76.8068 12.4949Z"
    fill="black"/>
  <path
    d="M82.0094 14.0649C81.7827 14.0649 81.5827 14.0133 81.4094 13.9099C81.236 13.8066 81.101 13.6433 81.0044 13.4199C80.9077 13.1933 80.8594 12.8983 80.8594 12.5349C80.8594 12.2383 80.891 11.9916 80.9544 11.7949C81.021 11.5983 81.111 11.4449 81.2244 11.3349C81.3377 11.2216 81.471 11.1416 81.6244 11.0949C81.7777 11.0483 81.941 11.0249 82.1144 11.0249C82.241 11.0249 82.3694 11.0333 82.4994 11.0499C82.6327 11.0666 82.741 11.0849 82.8244 11.1049L82.7744 11.4549C82.711 11.4483 82.611 11.4366 82.4744 11.4199C82.3377 11.3999 82.191 11.3899 82.0344 11.3899C81.911 11.3899 81.806 11.3999 81.7194 11.4199C81.636 11.4399 81.571 11.4733 81.5244 11.5199C81.461 11.5899 81.406 11.7183 81.3594 11.9049C81.316 12.0883 81.2944 12.3083 81.2944 12.5649C81.2944 12.8016 81.3127 12.9933 81.3494 13.1399C81.386 13.2833 81.4294 13.3933 81.4794 13.4699C81.5294 13.5433 81.5744 13.5949 81.6144 13.6249C81.641 13.6449 81.676 13.6633 81.7194 13.6799C81.766 13.6966 81.831 13.7049 81.9144 13.7049C82.011 13.7049 82.1094 13.6933 82.2094 13.6699C82.3094 13.6466 82.401 13.6199 82.4844 13.5899C82.5677 13.5599 82.6344 13.5333 82.6844 13.5099C82.7377 13.4866 82.7644 13.4749 82.7644 13.4749L82.8944 13.7999C82.8944 13.7999 82.8577 13.8216 82.7844 13.8649C82.711 13.9083 82.6077 13.9533 82.4744 13.9999C82.341 14.0433 82.186 14.0649 82.0094 14.0649Z"
    fill="black"/>
  <path
    d="M84.0473 13.9999V11.0899H84.4623V13.9999H84.0473ZM85.7873 13.9999V11.0899H86.2023V13.9999H85.7873ZM84.1473 11.4499V11.0899H86.1023V11.4499L85.1273 11.4449L84.1473 11.4499Z"
    fill="black"/>
  <path d="M87.6839 13.9999V11.0899H88.0989V13.9999H87.6839ZM87.6389 10.5949V10.1699H88.1489V10.5949H87.6389Z"
        fill="black"/>
  <path
    d="M90.6535 14.0699C90.5202 14.0699 90.3869 14.0649 90.2535 14.0549C90.1235 14.0483 90.0035 14.0399 89.8935 14.0299C89.7868 14.0199 89.7002 14.0099 89.6335 13.9999C89.5669 13.9933 89.5335 13.9899 89.5335 13.9899L89.5485 12.6399L89.5235 11.0799C89.5235 11.0799 89.5552 11.0766 89.6185 11.0699C89.6819 11.0633 89.7652 11.0566 89.8685 11.0499C89.9752 11.0433 90.0885 11.0366 90.2085 11.0299C90.3319 11.0233 90.4535 11.0199 90.5735 11.0199C90.7469 11.0199 90.9052 11.0466 91.0485 11.0999C91.1918 11.1499 91.3068 11.2333 91.3935 11.3499C91.4802 11.4633 91.5235 11.6149 91.5235 11.8049C91.5235 11.9516 91.4968 12.0699 91.4435 12.1599C91.3902 12.2499 91.3252 12.3183 91.2485 12.3649C91.1752 12.4116 91.1035 12.4433 91.0335 12.4599C90.9668 12.4766 90.9169 12.4866 90.8835 12.4899L90.9635 12.2899V12.6849L90.9035 12.4899C90.9402 12.4866 90.9969 12.4933 91.0735 12.5099C91.1502 12.5266 91.2302 12.5583 91.3135 12.6049C91.3969 12.6516 91.4685 12.7216 91.5285 12.8149C91.5885 12.9083 91.6185 13.0316 91.6185 13.1849C91.6185 13.3949 91.5685 13.5649 91.4685 13.6949C91.3719 13.8249 91.2485 13.9199 91.0985 13.9799C90.9519 14.0399 90.8035 14.0699 90.6535 14.0699ZM90.7485 13.7099C90.8652 13.7099 90.9552 13.6899 91.0185 13.6499C91.0852 13.6066 91.1302 13.5449 91.1535 13.4649C91.1802 13.3816 91.1935 13.2799 91.1935 13.1599C91.1935 13.0433 91.1669 12.9483 91.1135 12.8749C91.0635 12.8016 90.9935 12.7483 90.9035 12.7149C90.8135 12.6783 90.7069 12.6599 90.5835 12.6599H89.7485L89.9385 12.5949L89.9485 13.8499L89.9135 13.6499C89.9502 13.6533 90.0469 13.6649 90.2035 13.6849C90.3602 13.7016 90.5418 13.7099 90.7485 13.7099ZM90.5935 12.3249C90.7935 12.3283 90.9285 12.2933 90.9985 12.2199C91.0718 12.1466 91.1085 12.0133 91.1085 11.8199C91.1085 11.6599 91.0652 11.5466 90.9785 11.4799C90.8952 11.4133 90.7552 11.3799 90.5585 11.3799C90.4052 11.3799 90.2652 11.3866 90.1385 11.3999C90.0152 11.4099 89.9352 11.4183 89.8985 11.4249L89.9385 11.2299V12.5149L89.8985 12.3199L90.5935 12.3249Z"
    fill="black"/>
  <path
    d="M93.9563 14.0699C93.8229 14.0699 93.6896 14.0649 93.5563 14.0549C93.4263 14.0483 93.3063 14.0399 93.1963 14.0299C93.0896 14.0199 93.0029 14.0099 92.9363 13.9999C92.8696 13.9933 92.8363 13.9899 92.8363 13.9899L92.8512 12.6399L92.8263 11.0799C92.8263 11.0799 92.8579 11.0766 92.9213 11.0699C92.9846 11.0633 93.0679 11.0566 93.1713 11.0499C93.2779 11.0433 93.3913 11.0366 93.5113 11.0299C93.6346 11.0233 93.7563 11.0199 93.8763 11.0199C94.0496 11.0199 94.2079 11.0466 94.3512 11.0999C94.4946 11.1499 94.6096 11.2333 94.6963 11.3499C94.7829 11.4633 94.8263 11.6149 94.8263 11.8049C94.8263 11.9516 94.7996 12.0699 94.7463 12.1599C94.6929 12.2499 94.6279 12.3183 94.5513 12.3649C94.4779 12.4116 94.4063 12.4433 94.3363 12.4599C94.2696 12.4766 94.2196 12.4866 94.1863 12.4899L94.2663 12.2899V12.6849L94.2063 12.4899C94.2429 12.4866 94.2996 12.4933 94.3763 12.5099C94.4529 12.5266 94.5329 12.5583 94.6163 12.6049C94.6996 12.6516 94.7713 12.7216 94.8313 12.8149C94.8913 12.9083 94.9213 13.0316 94.9213 13.1849C94.9213 13.3949 94.8713 13.5649 94.7713 13.6949C94.6746 13.8249 94.5513 13.9199 94.4013 13.9799C94.2546 14.0399 94.1063 14.0699 93.9563 14.0699ZM94.0513 13.7099C94.1679 13.7099 94.2579 13.6899 94.3213 13.6499C94.3879 13.6066 94.4329 13.5449 94.4563 13.4649C94.4829 13.3816 94.4963 13.2799 94.4963 13.1599C94.4963 13.0433 94.4696 12.9483 94.4163 12.8749C94.3663 12.8016 94.2963 12.7483 94.2063 12.7149C94.1163 12.6783 94.0096 12.6599 93.8863 12.6599H93.0513L93.2413 12.5949L93.2513 13.8499L93.2163 13.6499C93.2529 13.6533 93.3496 13.6649 93.5063 13.6849C93.6629 13.7016 93.8446 13.7099 94.0513 13.7099ZM93.8963 12.3249C94.0963 12.3283 94.2313 12.2933 94.3013 12.2199C94.3746 12.1466 94.4113 12.0133 94.4113 11.8199C94.4113 11.6599 94.3679 11.5466 94.2812 11.4799C94.1979 11.4133 94.0579 11.3799 93.8613 11.3799C93.7079 11.3799 93.5679 11.3866 93.4412 11.3999C93.3179 11.4099 93.2379 11.4183 93.2013 11.4249L93.2413 11.2299V12.5149L93.2013 12.3199L93.8963 12.3249Z"
    fill="black"/>
  <path
    d="M95.774 14.0649L95.719 13.7399C95.7657 13.7366 95.8173 13.7299 95.874 13.7199C95.934 13.7066 95.9857 13.6866 96.029 13.6599C96.059 13.6399 96.0857 13.6116 96.109 13.5749C96.1357 13.5383 96.159 13.4716 96.179 13.3749C96.2023 13.2749 96.2207 13.1233 96.234 12.9199L96.369 11.0899H98.149V13.9999H97.734L97.749 12.6249L97.734 11.4499H96.754L96.599 13.2749C96.579 13.5216 96.514 13.7149 96.404 13.8549C96.2973 13.9949 96.1257 14.0649 95.889 14.0649C95.869 14.0649 95.849 14.0649 95.829 14.0649C95.8123 14.0649 95.794 14.0649 95.774 14.0649Z"
    fill="black"/>
  <path
    d="M100.155 14.0649C100.002 14.0649 99.8652 14.0299 99.7452 13.9599C99.6285 13.8866 99.5369 13.7816 99.4702 13.6449C99.4035 13.5049 99.3702 13.3366 99.3702 13.1399C99.3702 12.9033 99.4169 12.7183 99.5102 12.5849C99.6069 12.4483 99.7419 12.3516 99.9152 12.2949C100.089 12.2383 100.29 12.2099 100.52 12.2099H101.05C101.05 12.0433 101.045 11.8983 101.035 11.7749C101.029 11.6483 101.002 11.5549 100.955 11.4949C100.922 11.4483 100.875 11.4183 100.815 11.4049C100.759 11.3916 100.699 11.3849 100.635 11.3849C100.505 11.3849 100.377 11.3983 100.25 11.4249C100.127 11.4483 100.014 11.4766 99.9102 11.5099C99.8102 11.5433 99.7302 11.5733 99.6702 11.5999C99.6102 11.6233 99.5802 11.6349 99.5802 11.6349L99.4352 11.3099C99.4352 11.3099 99.4669 11.2966 99.5302 11.2699C99.5935 11.2399 99.6785 11.2066 99.7852 11.1699C99.8919 11.1299 100.01 11.0966 100.14 11.0699C100.274 11.0399 100.41 11.0249 100.55 11.0249C100.777 11.0249 100.957 11.0699 101.09 11.1599C101.224 11.2466 101.319 11.3699 101.375 11.5299C101.435 11.6866 101.465 11.8716 101.465 12.0849V13.9999H101.195L101.135 13.6949H101.105C101.072 13.7183 101.024 13.7516 100.96 13.7949C100.9 13.8349 100.829 13.8766 100.745 13.9199C100.665 13.9599 100.575 13.9933 100.475 14.0199C100.375 14.0499 100.269 14.0649 100.155 14.0649ZM100.225 13.6999C100.345 13.6999 100.459 13.6833 100.565 13.6499C100.675 13.6133 100.772 13.5733 100.855 13.5299C100.942 13.4866 101.007 13.4516 101.05 13.4249V12.5949C101.007 12.5883 100.942 12.5816 100.855 12.5749C100.769 12.5649 100.655 12.5599 100.515 12.5599C100.205 12.5599 100.014 12.5916 99.9402 12.6549C99.8969 12.6883 99.8635 12.7483 99.8402 12.8349C99.8169 12.9183 99.8052 13.0199 99.8052 13.1399C99.8052 13.3366 99.8369 13.4799 99.9002 13.5699C99.9669 13.6566 100.075 13.6999 100.225 13.6999Z"
    fill="black"/>
  <path
    d="M103.947 14.0649C103.72 14.0649 103.52 14.0133 103.347 13.9099C103.174 13.8066 103.039 13.6433 102.942 13.4199C102.845 13.1933 102.797 12.8983 102.797 12.5349C102.797 12.2383 102.829 11.9916 102.892 11.7949C102.959 11.5983 103.049 11.4449 103.162 11.3349C103.275 11.2216 103.409 11.1416 103.562 11.0949C103.715 11.0483 103.879 11.0249 104.052 11.0249C104.179 11.0249 104.307 11.0333 104.437 11.0499C104.57 11.0666 104.679 11.0849 104.762 11.1049L104.712 11.4549C104.649 11.4483 104.549 11.4366 104.412 11.4199C104.275 11.3999 104.129 11.3899 103.972 11.3899C103.849 11.3899 103.744 11.3999 103.657 11.4199C103.574 11.4399 103.509 11.4733 103.462 11.5199C103.399 11.5899 103.344 11.7183 103.297 11.9049C103.254 12.0883 103.232 12.3083 103.232 12.5649C103.232 12.8016 103.25 12.9933 103.287 13.1399C103.324 13.2833 103.367 13.3933 103.417 13.4699C103.467 13.5433 103.512 13.5949 103.552 13.6249C103.579 13.6449 103.614 13.6633 103.657 13.6799C103.704 13.6966 103.769 13.7049 103.852 13.7049C103.949 13.7049 104.047 13.6933 104.147 13.6699C104.247 13.6466 104.339 13.6199 104.422 13.5899C104.505 13.5599 104.572 13.5333 104.622 13.5099C104.675 13.4866 104.702 13.4749 104.702 13.4749L104.832 13.7999C104.832 13.7999 104.795 13.8216 104.722 13.8649C104.649 13.9083 104.545 13.9533 104.412 13.9999C104.279 14.0433 104.124 14.0649 103.947 14.0649Z"
    fill="black"/>
  <path
    d="M105.985 13.9999V11.0899H106.4L106.395 12.5349L106.4 13.9999H105.985ZM107.705 13.9999L107.71 12.5599L107.705 11.0899H108.12V13.9999H107.705ZM106.02 12.6949V12.3349H108.07V12.6949H106.02Z"
    fill="black"/>
  <path
    d="M109.567 13.9999V11.0899H109.982L109.932 13.5449H109.957L111.237 11.0899H111.767V13.9999H111.352L111.402 11.5449H111.382L110.097 13.9999H109.567Z"
    fill="black"/>
  <path
    d="M114.792 13.9999L113.627 12.5349L114.722 11.0899H115.262L114.082 12.5299V12.5549L115.332 13.9999H114.792ZM113.232 13.9999L113.257 12.5349L113.232 11.0899H113.647L113.622 12.5349L113.647 13.9999H113.232Z"
    fill="black"/>
  <path d="M116.315 13.9999V11.0899H116.73V13.9999H116.315ZM116.27 10.5949V10.1699H116.78V10.5949H116.27Z"
        fill="black"/>
  <path
    d="M119.284 14.0699C119.151 14.0699 119.018 14.0649 118.884 14.0549C118.754 14.0483 118.634 14.0399 118.524 14.0299C118.418 14.0199 118.331 14.0099 118.264 13.9999C118.198 13.9933 118.164 13.9899 118.164 13.9899L118.179 12.6399L118.154 11.0799C118.154 11.0799 118.186 11.0766 118.249 11.0699C118.313 11.0633 118.396 11.0566 118.499 11.0499C118.606 11.0433 118.719 11.0366 118.839 11.0299C118.963 11.0233 119.084 11.0199 119.204 11.0199C119.378 11.0199 119.536 11.0466 119.679 11.0999C119.823 11.1499 119.938 11.2333 120.024 11.3499C120.111 11.4633 120.154 11.6149 120.154 11.8049C120.154 11.9516 120.128 12.0699 120.074 12.1599C120.021 12.2499 119.956 12.3183 119.879 12.3649C119.806 12.4116 119.734 12.4433 119.664 12.4599C119.598 12.4766 119.548 12.4866 119.514 12.4899L119.594 12.2899V12.6849L119.534 12.4899C119.571 12.4866 119.628 12.4933 119.704 12.5099C119.781 12.5266 119.861 12.5583 119.944 12.6049C120.028 12.6516 120.099 12.7216 120.159 12.8149C120.219 12.9083 120.249 13.0316 120.249 13.1849C120.249 13.3949 120.199 13.5649 120.099 13.6949C120.003 13.8249 119.879 13.9199 119.729 13.9799C119.583 14.0399 119.434 14.0699 119.284 14.0699ZM119.379 13.7099C119.496 13.7099 119.586 13.6899 119.649 13.6499C119.716 13.6066 119.761 13.5449 119.784 13.4649C119.811 13.3816 119.824 13.2799 119.824 13.1599C119.824 13.0433 119.798 12.9483 119.744 12.8749C119.694 12.8016 119.624 12.7483 119.534 12.7149C119.444 12.6783 119.338 12.6599 119.214 12.6599H118.379L118.569 12.5949L118.579 13.8499L118.544 13.6499C118.581 13.6533 118.678 13.6649 118.834 13.6849C118.991 13.7016 119.173 13.7099 119.379 13.7099ZM119.224 12.3249C119.424 12.3283 119.559 12.2933 119.629 12.2199C119.703 12.1466 119.739 12.0133 119.739 11.8199C119.739 11.6599 119.696 11.5466 119.609 11.4799C119.526 11.4133 119.386 11.3799 119.189 11.3799C119.036 11.3799 118.896 11.3866 118.769 11.3999C118.646 11.4099 118.566 11.4183 118.529 11.4249L118.569 11.2299V12.5149L118.529 12.3199L119.224 12.3249Z"
    fill="black"/>
  <path
    d="M124.203 14.0649C123.93 14.0649 123.713 14.0033 123.553 13.8799C123.393 13.7533 123.28 13.5683 123.213 13.3249C123.147 13.0783 123.113 12.7766 123.113 12.4199C123.113 12.0133 123.133 11.6699 123.173 11.3899C123.213 11.1099 123.28 10.8849 123.373 10.7149C123.47 10.5449 123.598 10.4216 123.758 10.3449C123.918 10.2683 124.12 10.2299 124.363 10.2299C124.44 10.2299 124.513 10.2299 124.583 10.2299C124.653 10.2266 124.722 10.2249 124.788 10.2249C124.855 10.2249 124.923 10.2266 124.993 10.2299L124.908 10.5799C124.888 10.5833 124.845 10.5866 124.778 10.5899C124.712 10.5899 124.638 10.5916 124.558 10.5949C124.482 10.5949 124.413 10.5949 124.353 10.5949C124.17 10.5949 124.042 10.6016 123.968 10.6149C123.898 10.6283 123.845 10.6566 123.808 10.6999C123.762 10.7499 123.717 10.8316 123.673 10.9449C123.63 11.0549 123.593 11.1899 123.563 11.3499C123.537 11.5066 123.522 11.6816 123.518 11.8749L123.433 11.8099C123.503 11.6733 123.61 11.5716 123.753 11.5049C123.9 11.4349 124.06 11.3999 124.233 11.3999C124.5 11.3999 124.712 11.4516 124.868 11.5549C125.025 11.6583 125.137 11.8016 125.203 11.9849C125.273 12.1683 125.308 12.3799 125.308 12.6199C125.308 12.9166 125.273 13.1733 125.203 13.3899C125.137 13.6066 125.022 13.7733 124.858 13.8899C124.698 14.0066 124.48 14.0649 124.203 14.0649ZM124.203 13.7099C124.373 13.7099 124.507 13.6849 124.603 13.6349C124.7 13.5816 124.768 13.4766 124.808 13.3199C124.852 13.1633 124.873 12.9316 124.873 12.6249C124.873 12.3849 124.852 12.2033 124.808 12.0799C124.765 11.9533 124.695 11.8683 124.598 11.8249C124.505 11.7783 124.382 11.7549 124.228 11.7549C124.052 11.7549 123.913 11.7816 123.813 11.8349C123.713 11.8883 123.642 11.9783 123.598 12.1049C123.558 12.2316 123.538 12.4049 123.538 12.6249C123.538 12.9316 123.558 13.1633 123.598 13.3199C123.638 13.4766 123.707 13.5816 123.803 13.6349C123.903 13.6849 124.037 13.7099 124.203 13.7099Z"
    fill="black"/>
  <path
    d="M127.214 14.0649C127.06 14.0649 126.924 14.0299 126.804 13.9599C126.687 13.8866 126.595 13.7816 126.529 13.6449C126.462 13.5049 126.429 13.3366 126.429 13.1399C126.429 12.9033 126.475 12.7183 126.569 12.5849C126.665 12.4483 126.8 12.3516 126.974 12.2949C127.147 12.2383 127.349 12.2099 127.579 12.2099H128.109C128.109 12.0433 128.104 11.8983 128.094 11.7749C128.087 11.6483 128.06 11.5549 128.014 11.4949C127.98 11.4483 127.934 11.4183 127.874 11.4049C127.817 11.3916 127.757 11.3849 127.694 11.3849C127.564 11.3849 127.435 11.3983 127.309 11.4249C127.185 11.4483 127.072 11.4766 126.969 11.5099C126.869 11.5433 126.789 11.5733 126.729 11.5999C126.669 11.6233 126.639 11.6349 126.639 11.6349L126.494 11.3099C126.494 11.3099 126.525 11.2966 126.589 11.2699C126.652 11.2399 126.737 11.2066 126.844 11.1699C126.95 11.1299 127.069 11.0966 127.199 11.0699C127.332 11.0399 127.469 11.0249 127.609 11.0249C127.835 11.0249 128.015 11.0699 128.149 11.1599C128.282 11.2466 128.377 11.3699 128.434 11.5299C128.494 11.6866 128.524 11.8716 128.524 12.0849V13.9999H128.254L128.194 13.6949H128.164C128.13 13.7183 128.082 13.7516 128.019 13.7949C127.959 13.8349 127.887 13.8766 127.804 13.9199C127.724 13.9599 127.634 13.9933 127.534 14.0199C127.434 14.0499 127.327 14.0649 127.214 14.0649ZM127.284 13.6999C127.404 13.6999 127.517 13.6833 127.624 13.6499C127.734 13.6133 127.83 13.5733 127.914 13.5299C128 13.4866 128.065 13.4516 128.109 13.4249V12.5949C128.065 12.5883 128 12.5816 127.914 12.5749C127.827 12.5649 127.714 12.5599 127.574 12.5599C127.264 12.5599 127.072 12.5916 126.999 12.6549C126.955 12.6883 126.922 12.7483 126.899 12.8349C126.875 12.9183 126.864 13.0199 126.864 13.1399C126.864 13.3366 126.895 13.4799 126.959 13.5699C127.025 13.6566 127.134 13.6999 127.284 13.6999Z"
    fill="black"/>
  <path d="M129.9 13.9999V11.0899H130.305L130.315 13.9999H129.9ZM130.1 11.0899H131.45V11.4549L130.1 11.4449V11.0899Z"
        fill="black"/>
  <path
    d="M133.131 14.0649C132.977 14.0649 132.841 14.0299 132.721 13.9599C132.604 13.8866 132.512 13.7816 132.446 13.6449C132.379 13.5049 132.346 13.3366 132.346 13.1399C132.346 12.9033 132.392 12.7183 132.486 12.5849C132.582 12.4483 132.717 12.3516 132.891 12.2949C133.064 12.2383 133.266 12.2099 133.496 12.2099H134.026C134.026 12.0433 134.021 11.8983 134.011 11.7749C134.004 11.6483 133.977 11.5549 133.931 11.4949C133.897 11.4483 133.851 11.4183 133.791 11.4049C133.734 11.3916 133.674 11.3849 133.611 11.3849C133.481 11.3849 133.352 11.3983 133.226 11.4249C133.102 11.4483 132.989 11.4766 132.886 11.5099C132.786 11.5433 132.706 11.5733 132.646 11.5999C132.586 11.6233 132.556 11.6349 132.556 11.6349L132.411 11.3099C132.411 11.3099 132.442 11.2966 132.506 11.2699C132.569 11.2399 132.654 11.2066 132.761 11.1699C132.867 11.1299 132.986 11.0966 133.116 11.0699C133.249 11.0399 133.386 11.0249 133.526 11.0249C133.752 11.0249 133.932 11.0699 134.066 11.1599C134.199 11.2466 134.294 11.3699 134.351 11.5299C134.411 11.6866 134.441 11.8716 134.441 12.0849V13.9999H134.171L134.111 13.6949H134.081C134.047 13.7183 133.999 13.7516 133.936 13.7949C133.876 13.8349 133.804 13.8766 133.721 13.9199C133.641 13.9599 133.551 13.9933 133.451 14.0199C133.351 14.0499 133.244 14.0649 133.131 14.0649ZM133.201 13.6999C133.321 13.6999 133.434 13.6833 133.541 13.6499C133.651 13.6133 133.747 13.5733 133.831 13.5299C133.917 13.4866 133.982 13.4516 134.026 13.4249V12.5949C133.982 12.5883 133.917 12.5816 133.831 12.5749C133.744 12.5649 133.631 12.5599 133.491 12.5599C133.181 12.5599 132.989 12.5916 132.916 12.6549C132.872 12.6883 132.839 12.7483 132.816 12.8349C132.792 12.9183 132.781 13.0199 132.781 13.1399C132.781 13.3366 132.812 13.4799 132.876 13.5699C132.942 13.6566 133.051 13.6999 133.201 13.6999Z"
    fill="black"/>
  <path d="M136.392 13.9999V11.4449L135.432 11.4499V11.0899H137.742V11.4499L136.807 11.4449V13.9999H136.392Z"
        fill="black"/>
  <path
    d="M139.692 14.0649C139.415 14.0649 139.197 14.0033 139.037 13.8799C138.88 13.7566 138.768 13.5816 138.702 13.3549C138.635 13.1283 138.602 12.8583 138.602 12.5449C138.602 12.2316 138.635 11.9616 138.702 11.7349C138.768 11.5083 138.88 11.3333 139.037 11.2099C139.197 11.0866 139.415 11.0249 139.692 11.0249C139.968 11.0249 140.185 11.0866 140.342 11.2099C140.502 11.3333 140.615 11.5083 140.682 11.7349C140.748 11.9616 140.782 12.2316 140.782 12.5449C140.782 12.8583 140.748 13.1283 140.682 13.3549C140.615 13.5816 140.502 13.7566 140.342 13.8799C140.185 14.0033 139.968 14.0649 139.692 14.0649ZM139.692 13.7049C139.818 13.7049 139.923 13.6899 140.007 13.6599C140.093 13.6299 140.162 13.5749 140.212 13.4949C140.265 13.4149 140.302 13.2983 140.322 13.1449C140.345 12.9916 140.357 12.7916 140.357 12.5449C140.357 12.2983 140.345 12.0983 140.322 11.9449C140.302 11.7916 140.265 11.6749 140.212 11.5949C140.162 11.5116 140.093 11.4566 140.007 11.4299C139.923 11.3999 139.818 11.3849 139.692 11.3849C139.565 11.3849 139.458 11.3999 139.372 11.4299C139.288 11.4566 139.22 11.5116 139.167 11.5949C139.117 11.6749 139.08 11.7916 139.057 11.9449C139.033 12.0983 139.022 12.2983 139.022 12.5449C139.022 12.7916 139.033 12.9916 139.057 13.1449C139.08 13.2983 139.117 13.4149 139.167 13.4949C139.22 13.5749 139.288 13.6299 139.372 13.6599C139.458 13.6899 139.565 13.7049 139.692 13.7049Z"
    fill="black"/>
  <path
    d="M143.717 13.9999L142.552 12.5349L143.647 11.0899H144.187L143.007 12.5299V12.5549L144.257 13.9999H143.717ZM142.157 13.9999L142.182 12.5349L142.157 11.0899H142.572L142.547 12.5349L142.572 13.9999H142.157Z"
    fill="black"/>
  <path
    d="M146.236 14.0699C146.102 14.0699 145.969 14.0649 145.836 14.0549C145.706 14.0483 145.586 14.0399 145.476 14.0299C145.369 14.0199 145.282 14.0099 145.216 13.9999C145.149 13.9933 145.116 13.9899 145.116 13.9899L145.131 12.6399L145.106 11.0799C145.106 11.0799 145.137 11.0766 145.201 11.0699C145.264 11.0633 145.347 11.0566 145.451 11.0499C145.557 11.0433 145.671 11.0366 145.791 11.0299C145.914 11.0233 146.036 11.0199 146.156 11.0199C146.329 11.0199 146.487 11.0466 146.631 11.0999C146.774 11.1499 146.889 11.2333 146.976 11.3499C147.062 11.4633 147.106 11.6149 147.106 11.8049C147.106 11.9516 147.079 12.0699 147.026 12.1599C146.972 12.2499 146.907 12.3183 146.831 12.3649C146.757 12.4116 146.686 12.4433 146.616 12.4599C146.549 12.4766 146.499 12.4866 146.466 12.4899L146.546 12.2899V12.6849L146.486 12.4899C146.522 12.4866 146.579 12.4933 146.656 12.5099C146.732 12.5266 146.812 12.5583 146.896 12.6049C146.979 12.6516 147.051 12.7216 147.111 12.8149C147.171 12.9083 147.201 13.0316 147.201 13.1849C147.201 13.3949 147.151 13.5649 147.051 13.6949C146.954 13.8249 146.831 13.9199 146.681 13.9799C146.534 14.0399 146.386 14.0699 146.236 14.0699ZM146.331 13.7099C146.447 13.7099 146.537 13.6899 146.601 13.6499C146.667 13.6066 146.712 13.5449 146.736 13.4649C146.762 13.3816 146.776 13.2799 146.776 13.1599C146.776 13.0433 146.749 12.9483 146.696 12.8749C146.646 12.8016 146.576 12.7483 146.486 12.7149C146.396 12.6783 146.289 12.6599 146.166 12.6599H145.331L145.521 12.5949L145.531 13.8499L145.496 13.6499C145.532 13.6533 145.629 13.6649 145.786 13.6849C145.942 13.7016 146.124 13.7099 146.331 13.7099ZM146.176 12.3249C146.376 12.3283 146.511 12.2933 146.581 12.2199C146.654 12.1466 146.691 12.0133 146.691 11.8199C146.691 11.6599 146.647 11.5466 146.561 11.4799C146.477 11.4133 146.337 11.3799 146.141 11.3799C145.987 11.3799 145.847 11.3866 145.721 11.3999C145.597 11.4099 145.517 11.4183 145.481 11.4249L145.521 11.2299V12.5149L145.481 12.3199L146.176 12.3249Z"
    fill="black"/>
  <path
    d="M149.068 14.0649C148.915 14.0649 148.778 14.0299 148.658 13.9599C148.542 13.8866 148.45 13.7816 148.383 13.6449C148.317 13.5049 148.283 13.3366 148.283 13.1399C148.283 12.9033 148.33 12.7183 148.423 12.5849C148.52 12.4483 148.655 12.3516 148.828 12.2949C149.002 12.2383 149.203 12.2099 149.433 12.2099H149.963C149.963 12.0433 149.958 11.8983 149.948 11.7749C149.942 11.6483 149.915 11.5549 149.868 11.4949C149.835 11.4483 149.788 11.4183 149.728 11.4049C149.672 11.3916 149.612 11.3849 149.548 11.3849C149.418 11.3849 149.29 11.3983 149.163 11.4249C149.04 11.4483 148.927 11.4766 148.823 11.5099C148.723 11.5433 148.643 11.5733 148.583 11.5999C148.523 11.6233 148.493 11.6349 148.493 11.6349L148.348 11.3099C148.348 11.3099 148.38 11.2966 148.443 11.2699C148.507 11.2399 148.592 11.2066 148.698 11.1699C148.805 11.1299 148.923 11.0966 149.053 11.0699C149.187 11.0399 149.323 11.0249 149.463 11.0249C149.69 11.0249 149.87 11.0699 150.003 11.1599C150.137 11.2466 150.232 11.3699 150.288 11.5299C150.348 11.6866 150.378 11.8716 150.378 12.0849V13.9999H150.108L150.048 13.6949H150.018C149.985 13.7183 149.937 13.7516 149.873 13.7949C149.813 13.8349 149.742 13.8766 149.658 13.9199C149.578 13.9599 149.488 13.9933 149.388 14.0199C149.288 14.0499 149.182 14.0649 149.068 14.0649ZM149.138 13.6999C149.258 13.6999 149.372 13.6833 149.478 13.6499C149.588 13.6133 149.685 13.5733 149.768 13.5299C149.855 13.4866 149.92 13.4516 149.963 13.4249V12.5949C149.92 12.5883 149.855 12.5816 149.768 12.5749C149.682 12.5649 149.568 12.5599 149.428 12.5599C149.118 12.5599 148.927 12.5916 148.853 12.6549C148.81 12.6883 148.777 12.7483 148.753 12.8349C148.73 12.9183 148.718 13.0199 148.718 13.1399C148.718 13.3366 148.75 13.4799 148.813 13.5699C148.88 13.6566 148.988 13.6999 149.138 13.6999Z"
    fill="black"/>
  <path
    d="M151.785 14.8299V11.0899H152.065L152.12 11.3849H152.15C152.213 11.3383 152.287 11.2883 152.37 11.2349C152.453 11.1783 152.548 11.1299 152.655 11.0899C152.765 11.0466 152.885 11.0249 153.015 11.0249C153.195 11.0249 153.35 11.0766 153.48 11.1799C153.613 11.2799 153.715 11.4383 153.785 11.6549C153.858 11.8683 153.895 12.1466 153.895 12.4899C153.895 12.8133 153.865 13.0783 153.805 13.2849C153.745 13.4883 153.665 13.6483 153.565 13.7649C153.465 13.8783 153.352 13.9566 153.225 13.9999C153.098 14.0466 152.97 14.0699 152.84 14.0699C152.76 14.0699 152.678 14.0666 152.595 14.0599C152.512 14.0533 152.435 14.0433 152.365 14.0299C152.298 14.0199 152.243 14.0116 152.2 14.0049V14.8299H151.785ZM152.935 13.6999C152.972 13.6999 153.017 13.6966 153.07 13.6899C153.127 13.6799 153.177 13.6566 153.22 13.6199C153.267 13.5799 153.307 13.5183 153.34 13.4349C153.377 13.3483 153.405 13.2233 153.425 13.0599C153.445 12.8966 153.455 12.6799 153.455 12.4099C153.455 12.1899 153.448 12.0183 153.435 11.8949C153.425 11.7683 153.408 11.6749 153.385 11.6149C153.365 11.5516 153.34 11.5066 153.31 11.4799C153.293 11.4633 153.263 11.4449 153.22 11.4249C153.18 11.4049 153.117 11.3949 153.03 11.3949C152.923 11.3949 152.813 11.4133 152.7 11.4499C152.59 11.4833 152.49 11.5216 152.4 11.5649C152.31 11.6049 152.243 11.6383 152.2 11.6649V13.5949C152.27 13.6149 152.375 13.6383 152.515 13.6649C152.655 13.6883 152.795 13.6999 152.935 13.6999Z"
    fill="black"/>
  <path d="M155.716 13.9999V11.4449L154.756 11.4499V11.0899H157.066V11.4499L156.131 11.4449V13.9999H155.716Z"
        fill="black"/>
  <path
    d="M158.07 13.9999V11.0899H158.485L158.435 13.5449H158.46L159.74 11.0899H160.27V13.9999H159.855L159.905 11.5449H159.885L158.6 13.9999H158.07Z"
    fill="black"/>
  <path
    d="M161.635 14.8299V11.0899H161.915L161.97 11.3849H162C162.063 11.3383 162.136 11.2883 162.22 11.2349C162.303 11.1783 162.398 11.1299 162.505 11.0899C162.615 11.0466 162.735 11.0249 162.865 11.0249C163.045 11.0249 163.2 11.0766 163.33 11.1799C163.463 11.2799 163.565 11.4383 163.635 11.6549C163.708 11.8683 163.745 12.1466 163.745 12.4899C163.745 12.8133 163.715 13.0783 163.655 13.2849C163.595 13.4883 163.515 13.6483 163.415 13.7649C163.315 13.8783 163.201 13.9566 163.075 13.9999C162.948 14.0466 162.82 14.0699 162.69 14.0699C162.61 14.0699 162.528 14.0666 162.445 14.0599C162.361 14.0533 162.285 14.0433 162.215 14.0299C162.148 14.0199 162.093 14.0116 162.05 14.0049V14.8299H161.635ZM162.785 13.6999C162.821 13.6999 162.866 13.6966 162.92 13.6899C162.976 13.6799 163.026 13.6566 163.07 13.6199C163.116 13.5799 163.156 13.5183 163.19 13.4349C163.226 13.3483 163.255 13.2233 163.275 13.0599C163.295 12.8966 163.305 12.6799 163.305 12.4099C163.305 12.1899 163.298 12.0183 163.285 11.8949C163.275 11.7683 163.258 11.6749 163.235 11.6149C163.215 11.5516 163.19 11.5066 163.16 11.4799C163.143 11.4633 163.113 11.4449 163.07 11.4249C163.03 11.4049 162.966 11.3949 162.88 11.3949C162.773 11.3949 162.663 11.4133 162.55 11.4499C162.44 11.4833 162.34 11.5216 162.25 11.5649C162.16 11.6049 162.093 11.6383 162.05 11.6649V13.5949C162.12 13.6149 162.225 13.6383 162.365 13.6649C162.505 13.6883 162.645 13.6999 162.785 13.6999Z"
    fill="black"/>
  <path
    d="M165.045 13.9999V11.0899H165.46L165.455 12.5349L165.46 13.9999H165.045ZM166.765 13.9999L166.77 12.5599L166.765 11.0899H167.18V13.9999H166.765ZM165.08 12.6949V12.3349H167.13V12.6949H165.08Z"
    fill="black"/>
  <path
    d="M169.572 14.0649C169.296 14.0649 169.077 14.0033 168.917 13.8799C168.761 13.7566 168.649 13.5816 168.582 13.3549C168.516 13.1283 168.482 12.8583 168.482 12.5449C168.482 12.2316 168.516 11.9616 168.582 11.7349C168.649 11.5083 168.761 11.3333 168.917 11.2099C169.077 11.0866 169.296 11.0249 169.572 11.0249C169.849 11.0249 170.066 11.0866 170.222 11.2099C170.382 11.3333 170.496 11.5083 170.562 11.7349C170.629 11.9616 170.662 12.2316 170.662 12.5449C170.662 12.8583 170.629 13.1283 170.562 13.3549C170.496 13.5816 170.382 13.7566 170.222 13.8799C170.066 14.0033 169.849 14.0649 169.572 14.0649ZM169.572 13.7049C169.699 13.7049 169.804 13.6899 169.887 13.6599C169.974 13.6299 170.042 13.5749 170.092 13.4949C170.146 13.4149 170.182 13.2983 170.202 13.1449C170.226 12.9916 170.237 12.7916 170.237 12.5449C170.237 12.2983 170.226 12.0983 170.202 11.9449C170.182 11.7916 170.146 11.6749 170.092 11.5949C170.042 11.5116 169.974 11.4566 169.887 11.4299C169.804 11.3999 169.699 11.3849 169.572 11.3849C169.446 11.3849 169.339 11.3999 169.252 11.4299C169.169 11.4566 169.101 11.5116 169.047 11.5949C168.997 11.6749 168.961 11.7916 168.937 11.9449C168.914 12.0983 168.902 12.2983 168.902 12.5449C168.902 12.7916 168.914 12.9916 168.937 13.1449C168.961 13.2983 168.997 13.4149 169.047 13.4949C169.101 13.5749 169.169 13.6299 169.252 13.6599C169.339 13.6899 169.446 13.7049 169.572 13.7049Z"
    fill="black"/>
  <path
    d="M171.908 13.9999V11.0899H172.313L172.323 13.9999H171.908ZM172.108 11.0899H173.458V11.4549L172.108 11.4449V11.0899Z"
    fill="black"/>
  <path
    d="M175.524 14.0649C175.247 14.0649 175.029 14.0033 174.869 13.8799C174.712 13.7566 174.6 13.5816 174.534 13.3549C174.467 13.1283 174.434 12.8583 174.434 12.5449C174.434 12.2316 174.467 11.9616 174.534 11.7349C174.6 11.5083 174.712 11.3333 174.869 11.2099C175.029 11.0866 175.247 11.0249 175.524 11.0249C175.8 11.0249 176.017 11.0866 176.174 11.2099C176.334 11.3333 176.447 11.5083 176.514 11.7349C176.58 11.9616 176.614 12.2316 176.614 12.5449C176.614 12.8583 176.58 13.1283 176.514 13.3549C176.447 13.5816 176.334 13.7566 176.174 13.8799C176.017 14.0033 175.8 14.0649 175.524 14.0649ZM175.524 13.7049C175.65 13.7049 175.755 13.6899 175.839 13.6599C175.925 13.6299 175.994 13.5749 176.044 13.4949C176.097 13.4149 176.134 13.2983 176.154 13.1449C176.177 12.9916 176.189 12.7916 176.189 12.5449C176.189 12.2983 176.177 12.0983 176.154 11.9449C176.134 11.7916 176.097 11.6749 176.044 11.5949C175.994 11.5116 175.925 11.4566 175.839 11.4299C175.755 11.3999 175.65 11.3849 175.524 11.3849C175.397 11.3849 175.29 11.3999 175.204 11.4299C175.12 11.4566 175.052 11.5116 174.999 11.5949C174.949 11.6749 174.912 11.7916 174.889 11.9449C174.865 12.0983 174.854 12.2983 174.854 12.5449C174.854 12.7916 174.865 12.9916 174.889 13.1449C174.912 13.2983 174.949 13.4149 174.999 13.4949C175.052 13.5749 175.12 13.6299 175.204 13.6599C175.29 13.6899 175.397 13.7049 175.524 13.7049Z"
    fill="black"/>
  <path
    d="M180.606 14.0649C180.332 14.0649 180.116 14.0033 179.956 13.8799C179.796 13.7533 179.682 13.5683 179.616 13.3249C179.549 13.0783 179.516 12.7766 179.516 12.4199C179.516 12.0133 179.536 11.6699 179.576 11.3899C179.616 11.1099 179.682 10.8849 179.776 10.7149C179.872 10.5449 180.001 10.4216 180.161 10.3449C180.321 10.2683 180.522 10.2299 180.766 10.2299C180.842 10.2299 180.916 10.2299 180.986 10.2299C181.056 10.2266 181.124 10.2249 181.191 10.2249C181.257 10.2249 181.326 10.2266 181.396 10.2299L181.311 10.5799C181.291 10.5833 181.247 10.5866 181.181 10.5899C181.114 10.5899 181.041 10.5916 180.961 10.5949C180.884 10.5949 180.816 10.5949 180.756 10.5949C180.572 10.5949 180.444 10.6016 180.371 10.6149C180.301 10.6283 180.247 10.6566 180.211 10.6999C180.164 10.7499 180.119 10.8316 180.076 10.9449C180.032 11.0549 179.996 11.1899 179.966 11.3499C179.939 11.5066 179.924 11.6816 179.921 11.8749L179.836 11.8099C179.906 11.6733 180.012 11.5716 180.156 11.5049C180.302 11.4349 180.462 11.3999 180.636 11.3999C180.902 11.3999 181.114 11.4516 181.271 11.5549C181.427 11.6583 181.539 11.8016 181.606 11.9849C181.676 12.1683 181.711 12.3799 181.711 12.6199C181.711 12.9166 181.676 13.1733 181.606 13.3899C181.539 13.6066 181.424 13.7733 181.261 13.8899C181.101 14.0066 180.882 14.0649 180.606 14.0649ZM180.606 13.7099C180.776 13.7099 180.909 13.6849 181.006 13.6349C181.102 13.5816 181.171 13.4766 181.211 13.3199C181.254 13.1633 181.276 12.9316 181.276 12.6249C181.276 12.3849 181.254 12.2033 181.211 12.0799C181.167 11.9533 181.097 11.8683 181.001 11.8249C180.907 11.7783 180.784 11.7549 180.631 11.7549C180.454 11.7549 180.316 11.7816 180.216 11.8349C180.116 11.8883 180.044 11.9783 180.001 12.1049C179.961 12.2316 179.941 12.4049 179.941 12.6249C179.941 12.9316 179.961 13.1633 180.001 13.3199C180.041 13.4766 180.109 13.5816 180.206 13.6349C180.306 13.6849 180.439 13.7099 180.606 13.7099Z"
    fill="black"/>
  <path
    d="M183.156 14.8299L183.546 13.6949L182.616 11.0899H183.061L183.731 13.2149H183.751L184.421 11.0899H184.866L183.886 13.8149L183.596 14.8299H183.156Z"
    fill="black"/>
  <path
    d="M185.469 14.5199V13.6399C185.505 13.6399 185.562 13.6333 185.639 13.6199C185.719 13.6066 185.785 13.5783 185.839 13.5349C185.872 13.5083 185.899 13.4716 185.919 13.4249C185.939 13.3783 185.955 13.3049 185.969 13.2049C185.985 13.1049 186 12.9616 186.014 12.7749L186.149 11.0899H187.919V13.6399H188.314V14.5199H187.899V13.9999H185.884V14.5199H185.469ZM186.399 13.1099C186.389 13.2233 186.372 13.3216 186.349 13.4049C186.329 13.4883 186.292 13.5666 186.239 13.6399H187.504L187.514 12.5949L187.504 11.4499H186.534L186.399 13.1099Z"
    fill="black"/>
  <path
    d="M189.447 13.9999V11.0899H189.862L189.812 13.5449H189.837L191.117 11.0899H191.647V13.9999H191.232L191.282 11.5449H191.262L189.977 13.9999H189.447Z"
    fill="black"/>
  <path
    d="M193.037 13.9999V11.0899H193.452L193.447 12.5349L193.452 13.9999H193.037ZM194.757 13.9999L194.762 12.5599L194.757 11.0899H195.172V13.9999H194.757ZM193.072 12.6949V12.3349H195.122V12.6949H193.072Z"
    fill="black"/>
  <path
    d="M198.209 13.9999L197.044 12.5349L198.139 11.0899H198.679L197.499 12.5299V12.5549L198.749 13.9999H198.209ZM196.649 13.9999L196.674 12.5349L196.649 11.0899H197.064L197.039 12.5349L197.064 13.9999H196.649Z"
    fill="black"/>
  <path
    d="M199.797 14.8299L200.187 13.6949L199.257 11.0899H199.702L200.372 13.2149H200.392L201.062 11.0899H201.507L200.527 13.8149L200.237 14.8299H199.797Z"
    fill="black"/>
  <defs>
    <clipPath id="clip0_2210_12027">
      <rect width="30" height="32" fill="white" transform="translate(6 4)"/>
    </clipPath>
  </defs>
</svg>
