
<svg width="1343" height="224" viewBox="0 0 1343 224" fill="none" xmlns="http://www.w3.org/2000/svg">
  <path d="M281.935 201.276L282.371 166.16L281.935 125.481C281.935 125.481 282.662 125.409 284.116 125.263C285.643 125.118 287.642 124.936 290.114 124.718C292.586 124.5 295.276 124.318 298.184 124.173C301.165 124.027 304.11 123.954 307.018 123.954C313.488 123.954 318.505 126.099 322.068 130.389C325.63 134.606 327.411 140.967 327.411 149.474C327.411 154.781 326.757 159.18 325.448 162.67C324.212 166.16 322.504 168.886 320.323 170.849C318.142 172.739 315.706 174.084 313.016 174.884C310.326 175.684 307.563 176.084 304.728 176.084C302.474 176.084 299.965 176.011 297.203 175.866C294.44 175.648 292.404 175.502 291.095 175.429V201.276H281.935ZM305.382 168.341C307.708 168.341 309.599 168.232 311.053 168.014C312.507 167.723 313.67 167.141 314.543 166.269C315.779 165.033 316.615 162.924 317.051 159.943C317.487 156.89 317.705 153.036 317.705 148.383C317.705 144.457 317.487 141.44 317.051 139.331C316.687 137.15 316.215 135.587 315.633 134.642C315.124 133.697 314.579 133.043 313.997 132.679C313.27 132.17 312.071 131.77 310.399 131.479C308.799 131.116 306.945 130.934 304.837 130.934C302.001 130.934 299.311 131.079 296.766 131.37C294.294 131.588 292.404 131.843 291.095 132.134V167.032C292.113 167.177 294.004 167.432 296.766 167.795C299.602 168.159 302.474 168.341 305.382 168.341Z" fill="black"/>
  <path d="M368.477 201.276L389.089 125.481H401.958L422.57 201.276H413.191L407.411 178.592L411.991 181.209H379.274L383.636 178.592L377.856 201.276H368.477ZM383.855 177.392L380.801 173.139H410.246L407.193 177.392L394.869 129.516L399.995 133.551H391.052L396.178 129.516L383.855 177.392Z" fill="black"/>
  <path d="M468.631 201.276V125.481H477.792L477.465 165.396L477.683 185.899L507.238 125.481H520.979V201.276H511.818L512.145 165.396L511.927 134.097L479.21 201.276H468.631ZM493.605 122.319C488.734 122.319 484.772 121.046 481.718 118.502C478.665 115.884 477.029 111.776 476.811 106.178L483.572 105.96C483.863 108.359 484.699 110.286 486.08 111.74C487.535 113.121 490.043 113.812 493.605 113.812C497.75 113.812 500.549 113.121 502.003 111.74C503.53 110.286 504.438 108.359 504.729 105.96L510.4 106.178C510.255 109.886 509.455 112.94 508.001 115.339C506.547 117.738 504.584 119.519 502.112 120.683C499.713 121.773 496.877 122.319 493.605 122.319Z" fill="black"/>
  <path d="M569.393 212.618V193.206C570.338 193.206 571.247 193.169 572.119 193.097C573.064 192.951 574.009 192.624 574.954 192.115C576.045 191.534 576.954 190.588 577.681 189.28C578.481 187.971 579.099 186.153 579.535 183.827C580.044 181.428 580.407 178.447 580.625 174.884L583.897 125.481H625.23V193.206H632.755V212.618H623.594L623.703 201.276H578.444L578.553 212.618H569.393ZM589.132 178.81C588.841 182.445 588.405 185.39 587.823 187.644C587.314 189.898 586.587 191.752 585.642 193.206H616.069L616.287 162.888L616.069 133.551H592.404L589.132 178.81Z" fill="black"/>
  <path d="M689.523 202.694C688.069 202.694 686.543 202.512 684.943 202.148C683.416 201.858 682.18 201.567 681.235 201.276L682.762 193.642C683.343 193.787 684.398 194.006 685.925 194.296C687.524 194.587 688.833 194.733 689.851 194.733C692.25 194.733 694.067 194.042 695.303 192.661C696.612 191.206 697.775 188.953 698.793 185.899L675.455 125.481H685.161L702.61 174.557H702.937L717.442 125.481H727.148L710.462 176.084C708.281 182.7 706.464 187.789 705.01 191.352C703.555 194.842 701.774 197.532 699.666 199.422C698.502 200.513 696.939 201.312 694.976 201.821C693.013 202.403 691.196 202.694 689.523 202.694Z" fill="black"/>
  <path d="M765.527 201.276L796.39 163.542L796.063 165.723V161.252L796.281 163.433L767.926 125.481H778.505L806.096 163.433L777.087 201.276H765.527ZM805.66 201.276L806.314 163.433L805.66 125.481H814.821L814.166 163.433L814.821 201.276H805.66ZM854.954 201.276H843.394L814.385 163.433L841.976 125.481H852.555L824.2 163.433L824.418 161.252V165.723L824.091 163.542L854.954 201.276Z" fill="black"/>
  <path d="M902.837 201.276V125.481H911.998L911.671 161.688L907.526 158.635H947.659L943.515 161.688L943.297 125.481H952.458V201.276H943.297L943.515 163.651L947.659 166.705H907.526L911.671 163.651L911.998 201.276H902.837Z" fill="black"/>
  <path d="M1009.44 201.276V125.481H1018.61L1018.28 165.396L1018.5 185.899L1048.05 125.481H1061.79V201.276H1052.63L1052.96 165.396L1052.74 134.097L1020.02 201.276H1009.44Z" fill="black"/>
  <path d="M1118.82 201.276V125.481H1127.98L1127.66 165.396L1127.87 185.899L1157.43 125.481H1171.17V201.276H1162.01L1162.34 165.396L1162.12 134.097L1129.4 201.276H1118.82ZM1143.8 122.319C1138.92 122.319 1134.96 121.046 1131.91 118.502C1128.85 115.884 1127.22 111.776 1127 106.178L1133.76 105.96C1134.05 108.359 1134.89 110.286 1136.27 111.74C1137.72 113.121 1140.23 113.812 1143.8 113.812C1147.94 113.812 1150.74 113.121 1152.19 111.74C1153.72 110.286 1154.63 108.359 1154.92 105.96L1160.59 106.178C1160.45 109.886 1159.65 112.94 1158.19 115.339C1156.74 117.738 1154.77 119.519 1152.3 120.683C1149.9 121.773 1147.07 122.319 1143.8 122.319Z" fill="black"/>
  <path d="M1221.76 169.322V161.688H1246.74V169.322H1221.76Z" fill="black"/>
  <path d="M1313.35 202.694C1310.15 202.694 1307.21 202.403 1304.52 201.821C1301.9 201.312 1299.57 200.694 1297.54 199.967C1295.5 199.168 1293.83 198.441 1292.52 197.786C1291.21 197.059 1290.3 196.55 1289.79 196.259L1293.28 189.28C1293.79 189.498 1294.74 189.898 1296.12 190.479C1297.5 191.061 1299.17 191.679 1301.13 192.333C1303.17 192.915 1305.35 193.424 1307.68 193.86C1310 194.296 1312.37 194.514 1314.77 194.514C1319.27 194.514 1322.33 193.424 1323.93 191.243C1325.6 188.989 1326.44 185.535 1326.44 180.882C1326.44 174.775 1325.24 170.558 1322.84 168.232C1320.44 165.905 1316.69 164.742 1311.6 164.742H1301.46V157.544C1305.9 157.181 1309.6 156.817 1312.59 156.453C1315.57 156.09 1317.93 155.508 1319.67 154.709C1321.42 153.909 1322.66 152.709 1323.38 151.11C1324.11 149.437 1324.47 147.184 1324.47 144.348C1324.47 142.022 1324.25 140.059 1323.82 138.459C1323.45 136.787 1322.91 135.587 1322.18 134.86C1321.24 133.77 1319.71 133.006 1317.6 132.57C1315.49 132.134 1312.91 131.916 1309.86 131.916C1308.55 131.916 1307.24 131.952 1305.93 132.025C1304.7 132.097 1303.21 132.243 1301.46 132.461C1299.79 132.606 1297.61 132.861 1294.92 133.224L1293.83 125.808C1295.14 125.445 1296.74 125.154 1298.63 124.936C1300.59 124.645 1302.63 124.427 1304.73 124.282C1306.91 124.136 1308.88 124.063 1310.62 124.063C1315.06 124.063 1319.02 124.645 1322.51 125.808C1326 126.972 1328.76 128.935 1330.8 131.697C1332.83 134.46 1333.85 138.277 1333.85 143.148C1333.85 146.711 1333.34 149.619 1332.32 151.873C1331.31 154.054 1330.07 155.763 1328.62 156.999C1327.24 158.162 1325.89 158.998 1324.58 159.507C1323.27 159.943 1322.29 160.234 1321.64 160.38V160.816C1323.09 161.034 1324.62 161.47 1326.22 162.124C1327.89 162.779 1329.49 163.833 1331.02 165.287C1332.54 166.669 1333.78 168.559 1334.72 170.958C1335.67 173.357 1336.14 176.411 1336.14 180.119C1336.14 184.19 1335.41 187.935 1333.96 191.352C1332.51 194.769 1330.11 197.532 1326.76 199.64C1323.42 201.676 1318.95 202.694 1313.35 202.694Z" fill="black"/>
  <path d="M110.479 3.61328H115.833C125.842 3.61328 135.441 7.72456 142.518 15.0427C149.595 22.3608 153.571 32.2863 153.571 42.6357V53.7425C153.571 64.0919 149.595 74.0174 142.518 81.3355C135.441 88.6536 125.842 92.7649 115.833 92.7649H110.479V3.61328V3.61328Z" fill="#F24D1D"/>
  <path d="M48.2451 26.5039L52.5488 23.2109C60.5944 17.0549 70.6754 14.4558 80.5741 15.9856C90.4728 17.5153 99.3784 23.0486 105.332 31.368L111.721 40.2962C114.673 44.4143 116.812 49.0935 118.015 54.0666C119.218 59.0396 119.461 64.209 118.732 69.2794C118.002 74.3498 116.313 79.2218 113.762 83.6171C111.211 88.0125 107.847 91.845 103.863 94.8957L99.5594 98.1886L48.2559 26.4957L48.2451 26.5039Z" fill="#FF8577"/>
  <path d="M11.3877 83.2217L12.953 77.9275C15.8793 68.0303 22.4878 59.7405 31.325 54.8818C40.1621 50.023 50.5038 48.9934 60.0752 52.0193L70.347 55.2666C79.9183 58.2925 87.9352 65.1259 92.634 74.2639C97.3328 83.4019 98.3285 94.0957 95.4023 103.993L93.837 109.287L11.3877 83.2217Z" fill="#FFC700"/>
  <path d="M14.3848 151.43L12.5976 146.211C9.25666 136.455 9.80039 125.727 14.1092 116.386C18.4181 107.044 26.139 99.8556 35.5736 96.4009L45.6986 92.6934C55.1304 89.2378 65.5034 89.7971 74.5365 94.2483C83.5696 98.6995 90.5233 106.678 93.8685 116.43L95.6557 121.648L14.3781 151.41L14.3848 151.43Z" fill="#A837DD"/>
  <path d="M56.0518 204.46L51.6132 201.364C43.3157 195.577 37.5813 186.618 35.6715 176.459C33.7618 166.3 35.8332 155.772 41.43 147.192L47.4363 137.984C53.0333 129.42 61.6875 123.502 71.4996 121.529C81.3117 119.556 91.4799 121.689 99.7729 127.46L104.211 130.555L56.0184 204.437L56.0518 204.46Z" fill="#11A858"/>
  <path d="M119.999 221.447L114.65 221.689C104.651 222.14 94.8881 218.466 87.5089 211.474C80.1298 204.482 75.739 194.745 75.3025 184.406L74.8339 173.309C74.3974 162.97 77.9507 152.874 84.7125 145.244C91.4743 137.614 100.89 133.073 110.89 132.622L116.238 132.38L119.999 221.447Z" fill="#F24D1D"/>
  <path d="M181.211 195.762L177.05 199.246C169.272 205.759 159.31 208.81 149.356 207.728C139.403 206.646 130.272 201.52 123.973 193.477L117.214 184.846C110.915 176.803 107.964 166.502 109.01 156.209C110.057 145.916 115.014 136.475 122.792 129.962L126.953 126.478L181.211 195.762Z" fill="#FF8577"/>
  <path d="M165.928 18.3506L170.493 21.2432C179.026 26.6507 185.133 35.3423 187.47 45.4057C189.806 55.4691 188.181 66.0801 182.951 74.9044L177.339 84.3745C172.11 93.1988 163.704 99.5136 153.972 101.93C144.24 104.346 133.978 102.665 125.445 97.2574L120.88 94.3649L165.928 18.3506Z" fill="#11A858"/>
  <path d="M209.027 61.8213L211.033 66.9543C214.782 76.55 214.692 87.293 210.781 96.8196C206.87 106.346 199.46 113.876 190.18 117.753L180.196 121.924C170.916 125.801 160.527 125.708 151.314 121.664C142.101 117.62 134.819 109.957 131.069 100.361L129.064 95.2285L209.027 61.8213Z" fill="#A837DD"/>
  <path d="M214.891 129.856L213.55 135.216C211.044 145.236 204.792 153.816 196.168 159.069C187.544 164.321 177.256 165.817 167.566 163.225L157.167 160.444C147.477 157.853 139.179 151.388 134.1 142.47C129.02 133.553 127.574 122.914 130.08 112.894L131.42 107.535L214.891 129.856Z" fill="#FEC700"/>
  <path d="M295.635 72.2166C293.749 72.2166 292.261 71.7963 291.17 70.9556C290.102 70.115 289.341 68.9222 288.887 67.3772C288.432 65.8322 288.205 63.9919 288.205 61.8562C288.205 59.7205 288.432 57.8801 288.887 56.3351C289.341 54.7902 290.102 53.5973 291.17 52.7567C292.261 51.916 293.749 51.4957 295.635 51.4957C297.52 51.4957 298.997 51.916 300.065 52.7567C301.156 53.5973 301.928 54.7902 302.383 56.3351C302.837 57.8801 303.064 59.7205 303.064 61.8562C303.064 63.9919 302.837 65.8322 302.383 67.3772C301.928 68.9222 301.156 70.115 300.065 70.9556C298.997 71.7963 297.52 72.2166 295.635 72.2166ZM295.635 69.7628C296.498 69.7628 297.214 69.6606 297.782 69.4561C298.372 69.2516 298.838 68.8767 299.179 68.3314C299.542 67.7862 299.792 66.9909 299.929 65.9458C300.088 64.9007 300.167 63.5375 300.167 61.8562C300.167 60.1749 300.088 58.8116 299.929 57.7665C299.792 56.7214 299.542 55.9262 299.179 55.3809C298.838 54.8129 298.372 54.438 297.782 54.2562C297.214 54.0517 296.498 53.9495 295.635 53.9495C294.771 53.9495 294.044 54.0517 293.453 54.2562C292.885 54.438 292.42 54.8129 292.056 55.3809C291.715 55.9262 291.465 56.7214 291.306 57.7665C291.147 58.8116 291.068 60.1749 291.068 61.8562C291.068 63.5375 291.147 64.9007 291.306 65.9458C291.465 66.9909 291.715 67.7862 292.056 68.3314C292.42 68.8767 292.885 69.2516 293.453 69.4561C294.044 69.6606 294.771 69.7628 295.635 69.7628Z" fill="black"/>
  <path d="M318.679 72.2166C316.816 72.2166 315.339 71.7963 314.248 70.9556C313.158 70.0923 312.385 68.8313 311.931 67.1727C311.476 65.4914 311.249 63.4352 311.249 61.0042C311.249 58.2323 311.386 55.8921 311.658 53.9836C311.931 52.0751 312.385 50.5415 313.021 49.3827C313.68 48.224 314.555 47.3834 315.646 46.8608C316.736 46.3382 318.111 46.0769 319.769 46.0769C320.292 46.0769 320.792 46.0769 321.269 46.0769C321.746 46.0542 322.212 46.0428 322.666 46.0428C323.121 46.0428 323.586 46.0542 324.064 46.0769L323.484 48.4626C323.348 48.4853 323.052 48.508 322.598 48.5307C322.144 48.5307 321.644 48.5421 321.099 48.5648C320.576 48.5648 320.11 48.5648 319.701 48.5648C318.452 48.5648 317.577 48.6102 317.077 48.7011C316.6 48.792 316.236 48.9851 315.986 49.2805C315.668 49.6213 315.362 50.1779 315.066 50.9504C314.771 51.7002 314.521 52.6204 314.317 53.7109C314.135 54.7788 314.033 55.9716 314.01 57.2894L313.43 56.8463C313.908 55.9148 314.635 55.2218 315.612 54.7674C316.611 54.2903 317.702 54.0517 318.883 54.0517C320.701 54.0517 322.144 54.4039 323.212 55.1082C324.279 55.8126 325.04 56.7895 325.495 58.0392C325.972 59.2888 326.211 60.7315 326.211 62.3674C326.211 64.3895 325.972 66.1389 325.495 67.6158C325.04 69.0926 324.257 70.2286 323.143 71.0238C322.053 71.819 320.565 72.2166 318.679 72.2166ZM318.679 69.7969C319.838 69.7969 320.746 69.6265 321.405 69.2857C322.064 68.9222 322.53 68.2065 322.803 67.1386C323.098 66.0708 323.246 64.4917 323.246 62.4014C323.246 60.7656 323.098 59.5273 322.803 58.6867C322.507 57.8233 322.03 57.2439 321.371 56.9486C320.735 56.6305 319.894 56.4715 318.849 56.4715C317.645 56.4715 316.702 56.6532 316.021 57.0167C315.339 57.3803 314.85 57.9937 314.555 58.8571C314.282 59.7205 314.146 60.9019 314.146 62.4014C314.146 64.4917 314.282 66.0708 314.555 67.1386C314.828 68.2065 315.293 68.9222 315.952 69.2857C316.634 69.6265 317.543 69.7969 318.679 69.7969Z" fill="black"/>
  <path d="M334.393 55.4831L333.916 48.0877V47.4742H336.745V48.1218L336.2 55.4831H334.393Z" fill="black"/>
  <path d="M347.15 62.8786V60.4248H355.636V62.8786H347.15ZM352.296 72.2166C350.751 72.2166 349.388 71.8644 348.207 71.1601C347.025 70.4558 346.105 69.3425 345.446 67.8202C344.787 66.2753 344.458 64.2645 344.458 61.788C344.458 59.7659 344.674 58.0846 345.105 56.7441C345.56 55.4036 346.173 54.3585 346.946 53.6087C347.718 52.8362 348.627 52.2909 349.672 51.9728C350.717 51.6548 351.83 51.4957 353.012 51.4957C353.875 51.4957 354.75 51.5525 355.636 51.6661C356.545 51.7797 357.283 51.9047 357.851 52.041L357.511 54.4266C357.079 54.3812 356.397 54.3017 355.466 54.1881C354.534 54.0517 353.534 53.9836 352.467 53.9836C351.626 53.9836 350.91 54.0517 350.32 54.1881C349.752 54.3244 349.308 54.5516 348.99 54.8697C348.559 55.3468 348.184 56.2215 347.866 57.4939C347.57 58.7435 347.423 60.243 347.423 61.9925C347.423 63.6056 347.548 64.912 347.798 65.9117C348.048 66.8887 348.343 67.6385 348.684 68.161C349.024 68.6609 349.331 69.013 349.604 69.2175C349.786 69.3538 350.024 69.4788 350.32 69.5924C350.638 69.706 351.081 69.7628 351.649 69.7628C352.308 69.7628 352.978 69.6833 353.659 69.5243C354.341 69.3652 354.966 69.1834 355.534 68.979C356.102 68.7745 356.556 68.5927 356.897 68.4337C357.261 68.2746 357.442 68.1951 357.442 68.1951L358.328 70.4103C358.328 70.4103 358.079 70.558 357.579 70.8534C357.079 71.1487 356.374 71.4555 355.466 71.7736C354.557 72.0689 353.5 72.2166 352.296 72.2166Z" fill="black"/>
  <path d="M363.488 75.3179V69.3198C363.738 69.3198 364.124 69.2743 364.647 69.1834C365.192 69.0926 365.646 68.8994 366.01 68.6041C366.237 68.4223 366.419 68.1724 366.555 67.8543C366.691 67.5362 366.805 67.0364 366.896 66.3548C367.01 65.6732 367.112 64.6962 367.203 63.4239L368.123 51.9388H380.187V69.3198H382.88V75.3179H380.051V71.7736H366.317V75.3179H363.488ZM369.827 65.7072C369.759 66.4797 369.645 67.15 369.486 67.718C369.35 68.286 369.1 68.8199 368.736 69.3198H377.359L377.427 62.197L377.359 54.3926H370.747L369.827 65.7072Z" fill="black"/>
  <path d="M390.296 71.7736V51.9388H393.125L393.09 61.788L393.125 71.7736H390.296ZM402.02 71.7736L402.054 61.9584L402.02 51.9388H404.848V71.7736H402.02ZM390.534 62.8786V60.4248H404.507V62.8786H390.534Z" fill="black"/>
  <path d="M418.529 72.2166C417.484 72.2166 416.552 71.978 415.734 71.5009C414.939 71.0011 414.314 70.2854 413.86 69.3539C413.405 68.3996 413.178 67.2522 413.178 65.9117C413.178 64.2986 413.496 63.0376 414.132 62.1288C414.791 61.1973 415.712 60.5384 416.893 60.1521C418.074 59.7659 419.449 59.5728 421.017 59.5728H424.629C424.629 58.4368 424.595 57.4484 424.527 56.6078C424.482 55.7444 424.3 55.1082 423.982 54.6993C423.754 54.3812 423.436 54.1767 423.027 54.0858C422.641 53.9949 422.232 53.9495 421.801 53.9495C420.914 53.9495 420.04 54.0404 419.176 54.2222C418.336 54.3812 417.563 54.5743 416.859 54.8015C416.177 55.0287 415.632 55.2332 415.223 55.415C414.814 55.574 414.61 55.6535 414.61 55.6535L413.621 53.4383C413.621 53.4383 413.837 53.3474 414.269 53.1657C414.7 52.9612 415.28 52.734 416.007 52.484C416.734 52.2114 417.54 51.9842 418.427 51.8024C419.335 51.598 420.267 51.4957 421.221 51.4957C422.766 51.4957 423.993 51.8024 424.902 52.4159C425.811 53.0066 426.458 53.8473 426.844 54.9378C427.253 56.0057 427.458 57.2667 427.458 58.7208V71.7736H425.618L425.209 69.6947H425.004C424.777 69.8537 424.447 70.0809 424.016 70.3763C423.607 70.6489 423.118 70.9329 422.55 71.2283C422.005 71.5009 421.392 71.7281 420.71 71.9099C420.028 72.1144 419.301 72.2166 418.529 72.2166ZM419.006 69.7287C419.824 69.7287 420.596 69.6151 421.323 69.3879C422.073 69.138 422.732 68.8654 423.3 68.57C423.891 68.2746 424.334 68.0361 424.629 67.8543V62.197C424.334 62.1515 423.891 62.1061 423.3 62.0606C422.709 61.9925 421.937 61.9584 420.983 61.9584C418.87 61.9584 417.563 62.1742 417.063 62.6059C416.768 62.8331 416.541 63.2421 416.382 63.8328C416.223 64.4008 416.143 65.0938 416.143 65.9117C416.143 67.2522 416.359 68.2292 416.791 68.8426C417.245 69.4334 417.984 69.7287 419.006 69.7287Z" fill="black"/>
  <path d="M437.216 71.7736V51.9388H440.045L440.011 61.788L440.045 71.7736H437.216ZM448.94 71.7736L448.974 61.9584L448.94 51.9388H451.769V71.7736H448.94ZM437.455 62.8786V60.4248H451.428V62.8786H437.455Z" fill="black"/>
  <path d="M461.326 71.7736V51.9388H464.154L464.12 61.788L464.154 71.7736H461.326ZM473.049 71.7736L473.083 61.9584L473.049 51.9388H475.878V71.7736H473.049ZM461.564 62.8786V60.4248H475.537V62.8786H461.564Z" fill="black"/>
  <path d="M485.435 71.7736L490.376 63.9691C488.99 63.7647 487.832 63.1967 486.9 62.2651C485.969 61.3336 485.503 59.8341 485.503 57.7665C485.503 56.0625 485.844 54.7674 486.525 53.8813C487.23 52.9725 488.138 52.3477 489.252 52.0069C490.388 51.6661 491.615 51.4957 492.932 51.4957C493.478 51.4957 494.046 51.5071 494.636 51.5298C495.25 51.5525 495.852 51.5866 496.443 51.632C497.033 51.6775 497.579 51.7229 498.079 51.7684C498.578 51.7911 499.01 51.8252 499.374 51.8706C499.737 51.8933 499.976 51.916 500.089 51.9388L500.021 62.2651L500.192 71.7736H497.363V63.7987C496.84 63.8669 496.204 63.9237 495.454 63.9691C494.727 64.0146 493.966 64.0487 493.171 64.0714L488.741 71.7736H485.435ZM493.035 61.5154C493.694 61.5154 494.398 61.4926 495.148 61.4472C495.897 61.379 496.636 61.2995 497.363 61.2086V54.2222C496.818 54.154 496.17 54.0745 495.42 53.9836C494.671 53.8927 493.796 53.8473 492.796 53.8473C492.069 53.8473 491.444 53.8927 490.922 53.9836C490.399 54.0745 490.002 54.1881 489.729 54.3244C489.297 54.5289 488.956 54.9151 488.706 55.4831C488.479 56.0511 488.366 56.8009 488.366 57.7324C488.366 58.4368 488.422 59.0388 488.536 59.5387C488.65 60.0158 488.877 60.4021 489.218 60.6974C489.558 60.9928 490.047 61.2086 490.683 61.345C491.319 61.4586 492.103 61.5154 493.035 61.5154Z" fill="black"/>
  <path d="M528.496 72.2166C526.951 72.2166 525.588 71.8644 524.406 71.1601C523.225 70.4558 522.305 69.3425 521.646 67.8202C520.987 66.2753 520.657 64.2645 520.657 61.788C520.657 59.7659 520.873 58.0846 521.305 56.7441C521.759 55.4036 522.373 54.3585 523.145 53.6087C523.918 52.8362 524.827 52.2909 525.872 51.9728C526.917 51.6548 528.03 51.4957 529.212 51.4957C530.075 51.4957 530.95 51.5525 531.836 51.6661C532.745 51.7797 533.483 51.9047 534.051 52.041L533.71 54.4266C533.279 54.3812 532.597 54.3017 531.665 54.1881C530.734 54.0517 529.734 53.9836 528.666 53.9836C527.826 53.9836 527.11 54.0517 526.519 54.1881C525.951 54.3244 525.508 54.5516 525.19 54.8697C524.758 55.3468 524.384 56.2215 524.065 57.4939C523.77 58.7435 523.622 60.243 523.622 61.9925C523.622 63.6056 523.747 64.912 523.997 65.9117C524.247 66.8887 524.543 67.6385 524.883 68.161C525.224 68.6609 525.531 69.013 525.804 69.2175C525.985 69.3538 526.224 69.4788 526.519 69.5924C526.837 69.706 527.28 69.7628 527.848 69.7628C528.507 69.7628 529.178 69.6833 529.859 69.5243C530.541 69.3652 531.166 69.1834 531.734 68.979C532.302 68.7745 532.756 68.5927 533.097 68.4337C533.46 68.2746 533.642 68.1951 533.642 68.1951L534.528 70.4103C534.528 70.4103 534.278 70.558 533.778 70.8534C533.279 71.1487 532.574 71.4555 531.665 71.7736C530.757 72.0689 529.7 72.2166 528.496 72.2166Z" fill="black"/>
  <path d="M542.386 71.7736V51.9388H545.215V71.7736H542.386ZM554.246 71.7736V51.9388H557.075V71.7736H554.246ZM543.068 54.3926V51.9388H556.393V54.3926L549.748 54.3585L543.068 54.3926Z" fill="black"/>
  <path d="M567.174 71.7736V51.9388H570.003V71.7736H567.174ZM566.867 48.5648V45.668H570.343V48.5648H566.867Z" fill="black"/>
  <path d="M587.415 72.2507C586.506 72.2507 585.597 72.2166 584.689 72.1484C583.803 72.103 582.985 72.0462 582.235 71.978C581.508 71.9099 580.917 71.8417 580.463 71.7736C580.008 71.7281 579.781 71.7054 579.781 71.7054L579.883 62.5037L579.713 51.8706C579.713 51.8706 579.929 51.8479 580.36 51.8024C580.792 51.757 581.36 51.7116 582.064 51.6661C582.792 51.6207 583.564 51.5752 584.382 51.5298C585.223 51.4844 586.052 51.4616 586.87 51.4616C588.051 51.4616 589.13 51.6434 590.107 52.0069C591.084 52.3477 591.868 52.9157 592.459 53.7109C593.05 54.4834 593.345 55.5172 593.345 56.8123C593.345 57.812 593.163 58.6185 592.8 59.232C592.436 59.8454 591.993 60.3112 591.471 60.6293C590.971 60.9473 590.482 61.1632 590.005 61.2768C589.551 61.3904 589.21 61.4586 588.983 61.4813L589.528 60.1181V62.8104L589.119 61.4813C589.369 61.4586 589.755 61.504 590.278 61.6176C590.8 61.7312 591.346 61.947 591.914 62.2651C592.482 62.5832 592.97 63.0603 593.379 63.6965C593.788 64.3327 593.993 65.1733 593.993 66.2185C593.993 67.6498 593.652 68.8086 592.97 69.6947C592.311 70.5807 591.471 71.2283 590.448 71.6372C589.449 72.0462 588.437 72.2507 587.415 72.2507ZM588.063 69.7969C588.858 69.7969 589.471 69.6606 589.903 69.3879C590.357 69.0926 590.664 68.6722 590.823 68.127C591.005 67.5589 591.096 66.866 591.096 66.048C591.096 65.2528 590.914 64.6053 590.55 64.1055C590.21 63.6056 589.733 63.2421 589.119 63.0149C588.506 62.765 587.779 62.64 586.938 62.64H581.247L582.542 62.197L582.61 70.7511L582.371 69.3879C582.621 69.4106 583.28 69.4902 584.348 69.6265C585.416 69.7401 586.654 69.7969 588.063 69.7969ZM587.006 60.3566C588.369 60.3793 589.289 60.1408 589.767 59.6409C590.266 59.1411 590.516 58.2323 590.516 56.9145C590.516 55.8239 590.221 55.0514 589.63 54.597C589.062 54.1426 588.108 53.9154 586.768 53.9154C585.722 53.9154 584.768 53.9609 583.905 54.0517C583.064 54.1199 582.519 54.1767 582.269 54.2222L582.542 52.893V61.6517L582.269 60.3225L587.006 60.3566Z" fill="black"/>
  <path d="M609.927 72.2507C609.018 72.2507 608.109 72.2166 607.2 72.1484C606.314 72.103 605.496 72.0462 604.747 71.978C604.02 71.9099 603.429 71.8417 602.974 71.7736C602.52 71.7281 602.293 71.7054 602.293 71.7054L602.395 62.5037L602.225 51.8706C602.225 51.8706 602.44 51.8479 602.872 51.8024C603.304 51.757 603.872 51.7116 604.576 51.6661C605.303 51.6207 606.076 51.5752 606.894 51.5298C607.734 51.4844 608.564 51.4616 609.381 51.4616C610.563 51.4616 611.642 51.6434 612.619 52.0069C613.596 52.3477 614.38 52.9157 614.971 53.7109C615.561 54.4834 615.857 55.5172 615.857 56.8123C615.857 57.812 615.675 58.6185 615.311 59.232C614.948 59.8454 614.505 60.3112 613.982 60.6293C613.482 60.9473 612.994 61.1632 612.517 61.2768C612.062 61.3904 611.722 61.4586 611.494 61.4813L612.04 60.1181V62.8104L611.631 61.4813C611.881 61.4586 612.267 61.504 612.79 61.6176C613.312 61.7312 613.857 61.947 614.425 62.2651C614.993 62.5832 615.482 63.0603 615.891 63.6965C616.3 64.3327 616.504 65.1733 616.504 66.2185C616.504 67.6498 616.163 68.8086 615.482 69.6947C614.823 70.5807 613.982 71.2283 612.96 71.6372C611.96 72.0462 610.949 72.2507 609.927 72.2507ZM610.574 69.7969C611.37 69.7969 611.983 69.6606 612.415 69.3879C612.869 69.0926 613.176 68.6722 613.335 68.127C613.517 67.5589 613.607 66.866 613.607 66.048C613.607 65.2528 613.426 64.6053 613.062 64.1055C612.721 63.6056 612.244 63.2421 611.631 63.0149C611.017 62.765 610.29 62.64 609.45 62.64H603.758L605.053 62.197L605.121 70.7511L604.883 69.3879C605.133 69.4106 605.792 69.4902 606.86 69.6265C607.927 69.7401 609.166 69.7969 610.574 69.7969ZM609.518 60.3566C610.881 60.3793 611.801 60.1408 612.278 59.6409C612.778 59.1411 613.028 58.2323 613.028 56.9145C613.028 55.8239 612.733 55.0514 612.142 54.597C611.574 54.1426 610.62 53.9154 609.279 53.9154C608.234 53.9154 607.28 53.9609 606.416 54.0517C605.576 54.1199 605.031 54.1767 604.781 54.2222L605.053 52.893V61.6517L604.781 60.3225L609.518 60.3566Z" fill="black"/>
  <path d="M622.317 72.2166L621.942 70.0014C622.26 69.9787 622.612 69.9332 622.998 69.8651C623.407 69.7742 623.759 69.6379 624.055 69.4561C624.259 69.3198 624.441 69.1266 624.6 68.8767C624.782 68.6268 624.941 68.1724 625.077 67.5135C625.236 66.8319 625.361 65.7981 625.452 64.4122L626.372 51.9388H638.505V71.7736H635.676L635.778 62.4014L635.676 54.3926H628.996L627.94 66.8319C627.804 68.5132 627.36 69.831 626.611 70.7852C625.884 71.7395 624.714 72.2166 623.1 72.2166C622.964 72.2166 622.828 72.2166 622.691 72.2166C622.578 72.2166 622.453 72.2166 622.317 72.2166Z" fill="black"/>
  <path d="M652.179 72.2166C651.134 72.2166 650.203 71.978 649.385 71.5009C648.589 71.0011 647.965 70.2854 647.51 69.3539C647.056 68.3996 646.829 67.2522 646.829 65.9117C646.829 64.2986 647.147 63.0376 647.783 62.1288C648.442 61.1973 649.362 60.5384 650.543 60.1521C651.725 59.7659 653.099 59.5728 654.667 59.5728H658.28C658.28 58.4368 658.246 57.4484 658.177 56.6078C658.132 55.7444 657.95 55.1082 657.632 54.6993C657.405 54.3812 657.087 54.1767 656.678 54.0858C656.292 53.9949 655.883 53.9495 655.451 53.9495C654.565 53.9495 653.69 54.0404 652.827 54.2222C651.986 54.3812 651.214 54.5743 650.509 54.8015C649.828 55.0287 649.282 55.2332 648.873 55.415C648.465 55.574 648.26 55.6535 648.26 55.6535L647.272 53.4383C647.272 53.4383 647.488 53.3474 647.919 53.1657C648.351 52.9612 648.93 52.734 649.657 52.484C650.384 52.2114 651.191 51.9842 652.077 51.8024C652.986 51.598 653.917 51.4957 654.872 51.4957C656.417 51.4957 657.644 51.8024 658.552 52.4159C659.461 53.0066 660.109 53.8473 660.495 54.9378C660.904 56.0057 661.108 57.2667 661.108 58.7208V71.7736H659.268L658.859 69.6947H658.655C658.427 69.8537 658.098 70.0809 657.666 70.3763C657.257 70.6489 656.769 70.9329 656.201 71.2283C655.655 71.5009 655.042 71.7281 654.36 71.9099C653.679 72.1144 652.952 72.2166 652.179 72.2166ZM652.656 69.7287C653.474 69.7287 654.247 69.6151 654.974 69.3879C655.724 69.138 656.383 68.8654 656.951 68.57C657.541 68.2746 657.984 68.0361 658.28 67.8543V62.197C657.984 62.1515 657.541 62.1061 656.951 62.0606C656.36 61.9925 655.587 61.9584 654.633 61.9584C652.52 61.9584 651.214 62.1742 650.714 62.6059C650.418 62.8331 650.191 63.2421 650.032 63.8328C649.873 64.4008 649.794 65.0938 649.794 65.9117C649.794 67.2522 650.009 68.2292 650.441 68.8426C650.896 69.4334 651.634 69.7287 652.656 69.7287Z" fill="black"/>
  <path d="M678.024 72.2166C676.479 72.2166 675.116 71.8644 673.934 71.1601C672.753 70.4558 671.832 69.3425 671.174 67.8202C670.515 66.2753 670.185 64.2645 670.185 61.788C670.185 59.7659 670.401 58.0846 670.833 56.7441C671.287 55.4036 671.901 54.3585 672.673 53.6087C673.446 52.8362 674.354 52.2909 675.4 51.9728C676.445 51.6548 677.558 51.4957 678.739 51.4957C679.603 51.4957 680.477 51.5525 681.364 51.6661C682.272 51.7797 683.011 51.9047 683.579 52.041L683.238 54.4266C682.806 54.3812 682.125 54.3017 681.193 54.1881C680.262 54.0517 679.262 53.9836 678.194 53.9836C677.353 53.9836 676.638 54.0517 676.047 54.1881C675.479 54.3244 675.036 54.5516 674.718 54.8697C674.286 55.3468 673.911 56.2215 673.593 57.4939C673.298 58.7435 673.15 60.243 673.15 61.9925C673.15 63.6056 673.275 64.912 673.525 65.9117C673.775 66.8887 674.07 67.6385 674.411 68.161C674.752 68.6609 675.059 69.013 675.331 69.2175C675.513 69.3538 675.752 69.4788 676.047 69.5924C676.365 69.706 676.808 69.7628 677.376 69.7628C678.035 69.7628 678.705 69.6833 679.387 69.5243C680.069 69.3652 680.693 69.1834 681.261 68.979C681.829 68.7745 682.284 68.5927 682.625 68.4337C682.988 68.2746 683.17 68.1951 683.17 68.1951L684.056 70.4103C684.056 70.4103 683.806 70.558 683.306 70.8534C682.806 71.1487 682.102 71.4555 681.193 71.7736C680.284 72.0689 679.228 72.2166 678.024 72.2166Z" fill="black"/>
  <path d="M691.914 71.7736V51.9388H694.743L694.709 61.788L694.743 71.7736H691.914ZM703.638 71.7736L703.672 61.9584L703.638 51.9388H706.466V71.7736H703.638ZM692.153 62.8786V60.4248H706.126V62.8786H692.153Z" fill="black"/>
  <path d="M716.33 71.7736V51.9388H719.159L718.818 68.6722H718.988L727.713 51.9388H731.325V71.7736H728.497L728.838 55.0401H728.701L719.943 71.7736H716.33Z" fill="black"/>
  <path d="M751.942 71.7736L744.002 61.788L751.465 51.9388H755.146L747.103 61.7539V61.9243L755.623 71.7736H751.942ZM741.309 71.7736L741.48 61.788L741.309 51.9388H744.138L743.968 61.788L744.138 71.7736H741.309Z" fill="black"/>
  <path d="M762.324 71.7736V51.9388H765.153V71.7736H762.324ZM762.018 48.5648V45.668H765.494V48.5648H762.018Z" fill="black"/>
  <path d="M782.565 72.2507C781.657 72.2507 780.748 72.2166 779.839 72.1484C778.953 72.103 778.135 72.0462 777.385 71.978C776.658 71.9099 776.067 71.8417 775.613 71.7736C775.159 71.7281 774.931 71.7054 774.931 71.7054L775.034 62.5037L774.863 51.8706C774.863 51.8706 775.079 51.8479 775.511 51.8024C775.942 51.757 776.51 51.7116 777.215 51.6661C777.942 51.6207 778.714 51.5752 779.532 51.5298C780.373 51.4844 781.202 51.4616 782.02 51.4616C783.201 51.4616 784.281 51.6434 785.258 52.0069C786.235 52.3477 787.018 52.9157 787.609 53.7109C788.2 54.4834 788.495 55.5172 788.495 56.8123C788.495 57.812 788.314 58.6185 787.95 59.232C787.587 59.8454 787.143 60.3112 786.621 60.6293C786.121 60.9473 785.633 61.1632 785.155 61.2768C784.701 61.3904 784.36 61.4586 784.133 61.4813L784.678 60.1181V62.8104L784.269 61.4813C784.519 61.4586 784.906 61.504 785.428 61.6176C785.951 61.7312 786.496 61.947 787.064 62.2651C787.632 62.5832 788.12 63.0603 788.529 63.6965C788.938 64.3327 789.143 65.1733 789.143 66.2185C789.143 67.6498 788.802 68.8086 788.12 69.6947C787.462 70.5807 786.621 71.2283 785.598 71.6372C784.599 72.0462 783.588 72.2507 782.565 72.2507ZM783.213 69.7969C784.008 69.7969 784.622 69.6606 785.053 69.3879C785.508 69.0926 785.814 68.6722 785.973 68.127C786.155 67.5589 786.246 66.866 786.246 66.048C786.246 65.2528 786.064 64.6053 785.701 64.1055C785.36 63.6056 784.883 63.2421 784.269 63.0149C783.656 62.765 782.929 62.64 782.088 62.64H776.397L777.692 62.197L777.76 70.7511L777.521 69.3879C777.771 69.4106 778.43 69.4902 779.498 69.6265C780.566 69.7401 781.804 69.7969 783.213 69.7969ZM782.156 60.3566C783.52 60.3793 784.44 60.1408 784.917 59.6409C785.417 59.1411 785.667 58.2323 785.667 56.9145C785.667 55.8239 785.371 55.0514 784.781 54.597C784.213 54.1426 783.258 53.9154 781.918 53.9154C780.873 53.9154 779.918 53.9609 779.055 54.0517C778.214 54.1199 777.669 54.1767 777.419 54.2222L777.692 52.893V61.6517L777.419 60.3225L782.156 60.3566Z" fill="black"/>
  <path d="M816.093 72.2166C814.23 72.2166 812.753 71.7963 811.663 70.9556C810.572 70.0923 809.799 68.8313 809.345 67.1727C808.891 65.4914 808.663 63.4352 808.663 61.0042C808.663 58.2323 808.8 55.8921 809.072 53.9836C809.345 52.0751 809.799 50.5415 810.436 49.3827C811.095 48.224 811.969 47.3834 813.06 46.8608C814.15 46.3382 815.525 46.0769 817.184 46.0769C817.706 46.0769 818.206 46.0769 818.683 46.0769C819.16 46.0542 819.626 46.0428 820.08 46.0428C820.535 46.0428 821.001 46.0542 821.478 46.0769L820.898 48.4626C820.762 48.4853 820.467 48.508 820.012 48.5307C819.558 48.5307 819.058 48.5421 818.513 48.5648C817.99 48.5648 817.524 48.5648 817.115 48.5648C815.866 48.5648 814.991 48.6102 814.491 48.7011C814.014 48.792 813.651 48.9851 813.401 49.2805C813.083 49.6213 812.776 50.1779 812.48 50.9504C812.185 51.7002 811.935 52.6204 811.731 53.7109C811.549 54.7788 811.447 55.9716 811.424 57.2894L810.845 56.8463C811.322 55.9148 812.049 55.2218 813.026 54.7674C814.025 54.2903 815.116 54.0517 816.297 54.0517C818.115 54.0517 819.558 54.4039 820.626 55.1082C821.694 55.8126 822.455 56.7895 822.909 58.0392C823.386 59.2888 823.625 60.7315 823.625 62.3674C823.625 64.3895 823.386 66.1389 822.909 67.6158C822.455 69.0926 821.671 70.2286 820.558 71.0238C819.467 71.819 817.979 72.2166 816.093 72.2166ZM816.093 69.7969C817.252 69.7969 818.161 69.6265 818.819 69.2857C819.478 68.9222 819.944 68.2065 820.217 67.1386C820.512 66.0708 820.66 64.4917 820.66 62.4014C820.66 60.7656 820.512 59.5273 820.217 58.6867C819.921 57.8233 819.444 57.2439 818.785 56.9486C818.149 56.6305 817.309 56.4715 816.263 56.4715C815.059 56.4715 814.116 56.6532 813.435 57.0167C812.753 57.3803 812.265 57.9937 811.969 58.8571C811.697 59.7205 811.56 60.9019 811.56 62.4014C811.56 64.4917 811.697 66.0708 811.969 67.1386C812.242 68.2065 812.708 68.9222 813.367 69.2857C814.048 69.6265 814.957 69.7969 816.093 69.7969Z" fill="black"/>
  <path d="M836.613 72.2166C835.568 72.2166 834.636 71.978 833.818 71.5009C833.023 71.0011 832.398 70.2854 831.944 69.3539C831.489 68.3996 831.262 67.2522 831.262 65.9117C831.262 64.2986 831.58 63.0376 832.217 62.1288C832.875 61.1973 833.796 60.5384 834.977 60.1521C836.158 59.7659 837.533 59.5728 839.101 59.5728H842.713C842.713 58.4368 842.679 57.4484 842.611 56.6078C842.566 55.7444 842.384 55.1082 842.066 54.6993C841.839 54.3812 841.52 54.1767 841.111 54.0858C840.725 53.9949 840.316 53.9495 839.885 53.9495C838.999 53.9495 838.124 54.0404 837.26 54.2222C836.42 54.3812 835.647 54.5743 834.943 54.8015C834.261 55.0287 833.716 55.2332 833.307 55.415C832.898 55.574 832.694 55.6535 832.694 55.6535L831.705 53.4383C831.705 53.4383 831.921 53.3474 832.353 53.1657C832.784 52.9612 833.364 52.734 834.091 52.484C834.818 52.2114 835.625 51.9842 836.511 51.8024C837.419 51.598 838.351 51.4957 839.305 51.4957C840.85 51.4957 842.077 51.8024 842.986 52.4159C843.895 53.0066 844.542 53.8473 844.928 54.9378C845.337 56.0057 845.542 57.2667 845.542 58.7208V71.7736H843.702L843.293 69.6947H843.088C842.861 69.8537 842.531 70.0809 842.1 70.3763C841.691 70.6489 841.202 70.9329 840.634 71.2283C840.089 71.5009 839.476 71.7281 838.794 71.9099C838.112 72.1144 837.385 72.2166 836.613 72.2166ZM837.09 69.7287C837.908 69.7287 838.68 69.6151 839.407 69.3879C840.157 69.138 840.816 68.8654 841.384 68.57C841.975 68.2746 842.418 68.0361 842.713 67.8543V62.197C842.418 62.1515 841.975 62.1061 841.384 62.0606C840.793 61.9925 840.021 61.9584 839.067 61.9584C836.954 61.9584 835.647 62.1742 835.147 62.6059C834.852 62.8331 834.625 63.2421 834.466 63.8328C834.307 64.4008 834.227 65.0938 834.227 65.9117C834.227 67.2522 834.443 68.2292 834.875 68.8426C835.329 69.4334 836.068 69.7287 837.09 69.7287Z" fill="black"/>
  <path d="M854.925 71.7736V51.9388H857.686L857.754 71.7736H854.925ZM856.289 51.9388H865.49V54.4266L856.289 54.3585V51.9388Z" fill="black"/>
  <path d="M876.944 72.2166C875.898 72.2166 874.967 71.978 874.149 71.5009C873.354 71.0011 872.729 70.2854 872.275 69.3539C871.82 68.3996 871.593 67.2522 871.593 65.9117C871.593 64.2986 871.911 63.0376 872.547 62.1288C873.206 61.1973 874.126 60.5384 875.308 60.1521C876.489 59.7659 877.864 59.5728 879.431 59.5728H883.044C883.044 58.4368 883.01 57.4484 882.942 56.6078C882.896 55.7444 882.715 55.1082 882.396 54.6993C882.169 54.3812 881.851 54.1767 881.442 54.0858C881.056 53.9949 880.647 53.9495 880.215 53.9495C879.329 53.9495 878.454 54.0404 877.591 54.2222C876.75 54.3812 875.978 54.5743 875.274 54.8015C874.592 55.0287 874.047 55.2332 873.638 55.415C873.229 55.574 873.024 55.6535 873.024 55.6535L872.036 53.4383C872.036 53.4383 872.252 53.3474 872.684 53.1657C873.115 52.9612 873.695 52.734 874.422 52.484C875.149 52.2114 875.955 51.9842 876.841 51.8024C877.75 51.598 878.682 51.4957 879.636 51.4957C881.181 51.4957 882.408 51.8024 883.317 52.4159C884.225 53.0066 884.873 53.8473 885.259 54.9378C885.668 56.0057 885.873 57.2667 885.873 58.7208V71.7736H884.032L883.623 69.6947H883.419C883.192 69.8537 882.862 70.0809 882.431 70.3763C882.022 70.6489 881.533 70.9329 880.965 71.2283C880.42 71.5009 879.806 71.7281 879.125 71.9099C878.443 72.1144 877.716 72.2166 876.944 72.2166ZM877.421 69.7287C878.239 69.7287 879.011 69.6151 879.738 69.3879C880.488 69.138 881.147 68.8654 881.715 68.57C882.306 68.2746 882.749 68.0361 883.044 67.8543V62.197C882.749 62.1515 882.306 62.1061 881.715 62.0606C881.124 61.9925 880.352 61.9584 879.397 61.9584C877.284 61.9584 875.978 62.1742 875.478 62.6059C875.183 62.8331 874.956 63.2421 874.796 63.8328C874.637 64.4008 874.558 65.0938 874.558 65.9117C874.558 67.2522 874.774 68.2292 875.205 68.8426C875.66 69.4334 876.398 69.7287 877.421 69.7287Z" fill="black"/>
  <path d="M899.175 71.7736V54.3585L892.632 54.3926V51.9388H908.377V54.3926L902.004 54.3585V71.7736H899.175Z" fill="black"/>
  <path d="M921.662 72.2166C919.777 72.2166 918.288 71.7963 917.198 70.9556C916.13 70.115 915.369 68.9222 914.914 67.3772C914.46 65.8322 914.233 63.9919 914.233 61.8562C914.233 59.7205 914.46 57.8801 914.914 56.3351C915.369 54.7902 916.13 53.5973 917.198 52.7567C918.288 51.916 919.777 51.4957 921.662 51.4957C923.548 51.4957 925.025 51.916 926.093 52.7567C927.183 53.5973 927.956 54.7902 928.41 56.3351C928.865 57.8801 929.092 59.7205 929.092 61.8562C929.092 63.9919 928.865 65.8322 928.41 67.3772C927.956 68.9222 927.183 70.115 926.093 70.9556C925.025 71.7963 923.548 72.2166 921.662 72.2166ZM921.662 69.7628C922.526 69.7628 923.241 69.6606 923.809 69.4561C924.4 69.2516 924.866 68.8767 925.207 68.3314C925.57 67.7862 925.82 66.9909 925.957 65.9458C926.116 64.9007 926.195 63.5375 926.195 61.8562C926.195 60.1749 926.116 58.8116 925.957 57.7665C925.82 56.7214 925.57 55.9262 925.207 55.3809C924.866 54.8129 924.4 54.438 923.809 54.2562C923.241 54.0517 922.526 53.9495 921.662 53.9495C920.799 53.9495 920.072 54.0517 919.481 54.2562C918.913 54.438 918.447 54.8129 918.084 55.3809C917.743 55.9262 917.493 56.7214 917.334 57.7665C917.175 58.8116 917.096 60.1749 917.096 61.8562C917.096 63.5375 917.175 64.9007 917.334 65.9458C917.493 66.9909 917.743 67.7862 918.084 68.3314C918.447 68.8767 918.913 69.2516 919.481 69.4561C920.072 69.6606 920.799 69.7628 921.662 69.7628Z" fill="black"/>
  <path d="M949.103 71.7736L941.162 61.788L948.626 51.9388H952.307L944.264 61.7539V61.9243L952.784 71.7736H949.103ZM938.47 71.7736L938.64 61.788L938.47 51.9388H941.299L941.128 61.788L941.299 71.7736H938.47Z" fill="black"/>
  <path d="M966.267 72.2507C965.358 72.2507 964.449 72.2166 963.54 72.1484C962.654 72.103 961.836 72.0462 961.086 71.978C960.359 71.9099 959.769 71.8417 959.314 71.7736C958.86 71.7281 958.633 71.7054 958.633 71.7054L958.735 62.5037L958.565 51.8706C958.565 51.8706 958.78 51.8479 959.212 51.8024C959.644 51.757 960.212 51.7116 960.916 51.6661C961.643 51.6207 962.416 51.5752 963.234 51.5298C964.074 51.4844 964.903 51.4616 965.721 51.4616C966.903 51.4616 967.982 51.6434 968.959 52.0069C969.936 52.3477 970.72 52.9157 971.311 53.7109C971.901 54.4834 972.197 55.5172 972.197 56.8123C972.197 57.812 972.015 58.6185 971.651 59.232C971.288 59.8454 970.845 60.3112 970.322 60.6293C969.822 60.9473 969.334 61.1632 968.857 61.2768C968.402 61.3904 968.062 61.4586 967.834 61.4813L968.38 60.1181V62.8104L967.971 61.4813C968.221 61.4586 968.607 61.504 969.129 61.6176C969.652 61.7312 970.197 61.947 970.765 62.2651C971.333 62.5832 971.822 63.0603 972.231 63.6965C972.64 64.3327 972.844 65.1733 972.844 66.2185C972.844 67.6498 972.503 68.8086 971.822 69.6947C971.163 70.5807 970.322 71.2283 969.3 71.6372C968.3 72.0462 967.289 72.2507 966.267 72.2507ZM966.914 69.7969C967.709 69.7969 968.323 69.6606 968.755 69.3879C969.209 69.0926 969.516 68.6722 969.675 68.127C969.857 67.5589 969.947 66.866 969.947 66.048C969.947 65.2528 969.766 64.6053 969.402 64.1055C969.061 63.6056 968.584 63.2421 967.971 63.0149C967.357 62.765 966.63 62.64 965.79 62.64H960.098L961.393 62.197L961.461 70.7511L961.223 69.3879C961.473 69.4106 962.132 69.4902 963.199 69.6265C964.267 69.7401 965.506 69.7969 966.914 69.7969ZM965.858 60.3566C967.221 60.3793 968.141 60.1408 968.618 59.6409C969.118 59.1411 969.368 58.2323 969.368 56.9145C969.368 55.8239 969.073 55.0514 968.482 54.597C967.914 54.1426 966.96 53.9154 965.619 53.9154C964.574 53.9154 963.62 53.9609 962.756 54.0517C961.916 54.1199 961.37 54.1767 961.121 54.2222L961.393 52.893V61.6517L961.121 60.3225L965.858 60.3566Z" fill="black"/>
  <path d="M985.575 72.2166C984.53 72.2166 983.598 71.978 982.78 71.5009C981.985 71.0011 981.36 70.2854 980.906 69.3539C980.451 68.3996 980.224 67.2522 980.224 65.9117C980.224 64.2986 980.542 63.0376 981.179 62.1288C981.837 61.1973 982.758 60.5384 983.939 60.1521C985.12 59.7659 986.495 59.5728 988.063 59.5728H991.675C991.675 58.4368 991.641 57.4484 991.573 56.6078C991.528 55.7444 991.346 55.1082 991.028 54.6993C990.801 54.3812 990.482 54.1767 990.073 54.0858C989.687 53.9949 989.278 53.9495 988.847 53.9495C987.961 53.9495 987.086 54.0404 986.222 54.2222C985.382 54.3812 984.609 54.5743 983.905 54.8015C983.223 55.0287 982.678 55.2332 982.269 55.415C981.86 55.574 981.656 55.6535 981.656 55.6535L980.667 53.4383C980.667 53.4383 980.883 53.3474 981.315 53.1657C981.746 52.9612 982.326 52.734 983.053 52.484C983.78 52.2114 984.587 51.9842 985.473 51.8024C986.381 51.598 987.313 51.4957 988.267 51.4957C989.812 51.4957 991.039 51.8024 991.948 52.4159C992.857 53.0066 993.504 53.8473 993.89 54.9378C994.299 56.0057 994.504 57.2667 994.504 58.7208V71.7736H992.664L992.255 69.6947H992.05C991.823 69.8537 991.493 70.0809 991.062 70.3763C990.653 70.6489 990.164 70.9329 989.596 71.2283C989.051 71.5009 988.438 71.7281 987.756 71.9099C987.074 72.1144 986.347 72.2166 985.575 72.2166ZM986.052 69.7287C986.87 69.7287 987.642 69.6151 988.369 69.3879C989.119 69.138 989.778 68.8654 990.346 68.57C990.937 68.2746 991.38 68.0361 991.675 67.8543V62.197C991.38 62.1515 990.937 62.1061 990.346 62.0606C989.755 61.9925 988.983 61.9584 988.029 61.9584C985.916 61.9584 984.609 62.1742 984.109 62.6059C983.814 62.8331 983.587 63.2421 983.428 63.8328C983.269 64.4008 983.189 65.0938 983.189 65.9117C983.189 67.2522 983.405 68.2292 983.837 68.8426C984.291 69.4334 985.03 69.7287 986.052 69.7287Z" fill="black"/>
  <path d="M1004.09 77.4309V51.9388H1006L1006.38 53.9495H1006.58C1007.01 53.6314 1007.51 53.2906 1008.08 52.9271C1008.65 52.5408 1009.29 52.2114 1010.02 51.9388C1010.77 51.6434 1011.59 51.4957 1012.48 51.4957C1013.7 51.4957 1014.76 51.8479 1015.65 52.5522C1016.55 53.2338 1017.25 54.313 1017.72 55.7898C1018.22 57.2439 1018.47 59.1411 1018.47 61.4813C1018.47 63.6851 1018.27 65.4914 1017.86 66.9001C1017.45 68.286 1016.91 69.3766 1016.22 70.1718C1015.54 70.9443 1014.77 71.4782 1013.91 71.7736C1013.04 72.0916 1012.17 72.2507 1011.28 72.2507C1010.74 72.2507 1010.18 72.228 1009.61 72.1825C1009.04 72.1371 1008.52 72.0689 1008.05 71.978C1007.59 71.9099 1007.22 71.8531 1006.92 71.8076V77.4309H1004.09ZM1011.93 69.7287C1012.18 69.7287 1012.49 69.706 1012.85 69.6606C1013.24 69.5924 1013.58 69.4334 1013.87 69.1834C1014.19 68.9108 1014.46 68.4905 1014.69 67.9225C1014.94 67.3317 1015.13 66.4797 1015.27 65.3664C1015.41 64.2532 1015.47 62.7763 1015.47 60.936C1015.47 59.4365 1015.43 58.2664 1015.34 57.4257C1015.27 56.5623 1015.16 55.9262 1015 55.5172C1014.86 55.0855 1014.69 54.7788 1014.49 54.597C1014.37 54.4834 1014.17 54.3585 1013.87 54.2222C1013.6 54.0858 1013.17 54.0177 1012.58 54.0177C1011.85 54.0177 1011.1 54.1426 1010.33 54.3926C1009.58 54.6198 1008.9 54.881 1008.28 55.1764C1007.67 55.449 1007.22 55.6762 1006.92 55.858V69.013C1007.4 69.1494 1008.11 69.3084 1009.07 69.4902C1010.02 69.6492 1010.98 69.7287 1011.93 69.7287Z" fill="black"/>
  <path d="M1030.88 71.7736V54.3585L1024.34 54.3926V51.9388H1040.09V54.3926L1033.71 54.3585V71.7736H1030.88Z" fill="black"/>
  <path d="M1046.93 71.7736V51.9388H1049.76L1049.42 68.6722H1049.59L1058.31 51.9388H1061.93V71.7736H1059.1L1059.44 55.0401H1059.3L1050.54 71.7736H1046.93Z" fill="black"/>
  <path d="M1071.23 77.4309V51.9388H1073.14L1073.51 53.9495H1073.72C1074.15 53.6314 1074.65 53.2906 1075.22 52.9271C1075.78 52.5408 1076.43 52.2114 1077.16 51.9388C1077.91 51.6434 1078.73 51.4957 1079.61 51.4957C1080.84 51.4957 1081.89 51.8479 1082.78 52.5522C1083.69 53.2338 1084.38 54.313 1084.86 55.7898C1085.36 57.2439 1085.61 59.1411 1085.61 61.4813C1085.61 63.6851 1085.41 65.4914 1085 66.9001C1084.59 68.286 1084.04 69.3766 1083.36 70.1718C1082.68 70.9443 1081.91 71.4782 1081.04 71.7736C1080.18 72.0916 1079.3 72.2507 1078.42 72.2507C1077.87 72.2507 1077.32 72.228 1076.75 72.1825C1076.18 72.1371 1075.66 72.0689 1075.18 71.978C1074.73 71.9099 1074.35 71.8531 1074.06 71.8076V77.4309H1071.23ZM1079.07 69.7287C1079.32 69.7287 1079.62 69.706 1079.99 69.6606C1080.37 69.5924 1080.71 69.4334 1081.01 69.1834C1081.33 68.9108 1081.6 68.4905 1081.83 67.9225C1082.08 67.3317 1082.27 66.4797 1082.41 65.3664C1082.54 64.2532 1082.61 62.7763 1082.61 60.936C1082.61 59.4365 1082.57 58.2664 1082.47 57.4257C1082.41 56.5623 1082.29 55.9262 1082.13 55.5172C1082 55.0855 1081.83 54.7788 1081.62 54.597C1081.51 54.4834 1081.3 54.3585 1081.01 54.2222C1080.74 54.0858 1080.3 54.0177 1079.71 54.0177C1078.99 54.0177 1078.24 54.1426 1077.46 54.3926C1076.71 54.6198 1076.03 54.881 1075.42 55.1764C1074.81 55.449 1074.35 55.6762 1074.06 55.858V69.013C1074.53 69.1494 1075.25 69.3084 1076.2 69.4902C1077.16 69.6492 1078.11 69.7287 1079.07 69.7287Z" fill="black"/>
  <path d="M1094.48 71.7736V51.9388H1097.3L1097.27 61.788L1097.3 71.7736H1094.48ZM1106.2 71.7736L1106.23 61.9584L1106.2 51.9388H1109.03V71.7736H1106.2ZM1094.71 62.8786V60.4248H1108.69V62.8786H1094.71Z" fill="black"/>
  <path d="M1125.33 72.2166C1123.45 72.2166 1121.96 71.7963 1120.87 70.9556C1119.8 70.115 1119.04 68.9222 1118.58 67.3772C1118.13 65.8322 1117.9 63.9919 1117.9 61.8562C1117.9 59.7205 1118.13 57.8801 1118.58 56.3351C1119.04 54.7902 1119.8 53.5973 1120.87 52.7567C1121.96 51.916 1123.45 51.4957 1125.33 51.4957C1127.22 51.4957 1128.7 51.916 1129.76 52.7567C1130.85 53.5973 1131.63 54.7902 1132.08 56.3351C1132.54 57.8801 1132.76 59.7205 1132.76 61.8562C1132.76 63.9919 1132.54 65.8322 1132.08 67.3772C1131.63 68.9222 1130.85 70.115 1129.76 70.9556C1128.7 71.7963 1127.22 72.2166 1125.33 72.2166ZM1125.33 69.7628C1126.2 69.7628 1126.91 69.6606 1127.48 69.4561C1128.07 69.2516 1128.54 68.8767 1128.88 68.3314C1129.24 67.7862 1129.49 66.9909 1129.63 65.9458C1129.79 64.9007 1129.87 63.5375 1129.87 61.8562C1129.87 60.1749 1129.79 58.8116 1129.63 57.7665C1129.49 56.7214 1129.24 55.9262 1128.88 55.3809C1128.54 54.8129 1128.07 54.438 1127.48 54.2562C1126.91 54.0517 1126.2 53.9495 1125.33 53.9495C1124.47 53.9495 1123.74 54.0517 1123.15 54.2562C1122.58 54.438 1122.12 54.8129 1121.75 55.3809C1121.41 55.9262 1121.16 56.7214 1121 57.7665C1120.85 58.8116 1120.77 60.1749 1120.77 61.8562C1120.77 63.5375 1120.85 64.9007 1121 65.9458C1121.16 66.9909 1121.41 67.7862 1121.75 68.3314C1122.12 68.8767 1122.58 69.2516 1123.15 69.4561C1123.74 69.6606 1124.47 69.7628 1125.33 69.7628Z" fill="black"/>
  <path d="M1141.25 71.7736V51.9388H1144.01L1144.08 71.7736H1141.25ZM1142.62 51.9388H1151.82V54.4266L1142.62 54.3585V51.9388Z" fill="black"/>
  <path d="M1165.9 72.2166C1164.01 72.2166 1162.52 71.7963 1161.43 70.9556C1160.36 70.115 1159.6 68.9222 1159.15 67.3772C1158.69 65.8322 1158.47 63.9919 1158.47 61.8562C1158.47 59.7205 1158.69 57.8801 1159.15 56.3351C1159.6 54.7902 1160.36 53.5973 1161.43 52.7567C1162.52 51.916 1164.01 51.4957 1165.9 51.4957C1167.78 51.4957 1169.26 51.916 1170.33 52.7567C1171.42 53.5973 1172.19 54.7902 1172.64 56.3351C1173.1 57.8801 1173.33 59.7205 1173.33 61.8562C1173.33 63.9919 1173.1 65.8322 1172.64 67.3772C1172.19 68.9222 1171.42 70.115 1170.33 70.9556C1169.26 71.7963 1167.78 72.2166 1165.9 72.2166ZM1165.9 69.7628C1166.76 69.7628 1167.48 69.6606 1168.04 69.4561C1168.63 69.2516 1169.1 68.8767 1169.44 68.3314C1169.8 67.7862 1170.05 66.9909 1170.19 65.9458C1170.35 64.9007 1170.43 63.5375 1170.43 61.8562C1170.43 60.1749 1170.35 58.8116 1170.19 57.7665C1170.05 56.7214 1169.8 55.9262 1169.44 55.3809C1169.1 54.8129 1168.63 54.438 1168.04 54.2562C1167.48 54.0517 1166.76 53.9495 1165.9 53.9495C1165.03 53.9495 1164.31 54.0517 1163.72 54.2562C1163.15 54.438 1162.68 54.8129 1162.32 55.3809C1161.98 55.9262 1161.73 56.7214 1161.57 57.7665C1161.41 58.8116 1161.33 60.1749 1161.33 61.8562C1161.33 63.5375 1161.41 64.9007 1161.57 65.9458C1161.73 66.9909 1161.98 67.7862 1162.32 68.3314C1162.68 68.8767 1163.15 69.2516 1163.72 69.4561C1164.31 69.6606 1165.03 69.7628 1165.9 69.7628Z" fill="black"/>
  <path d="M1200.54 72.2166C1198.67 72.2166 1197.2 71.7963 1196.11 70.9556C1195.01 70.0923 1194.24 68.8313 1193.79 67.1727C1193.33 65.4914 1193.11 63.4352 1193.11 61.0042C1193.11 58.2323 1193.24 55.8921 1193.52 53.9836C1193.79 52.0751 1194.24 50.5415 1194.88 49.3827C1195.54 48.224 1196.41 47.3834 1197.5 46.8608C1198.59 46.3382 1199.97 46.0769 1201.63 46.0769C1202.15 46.0769 1202.65 46.0769 1203.13 46.0769C1203.6 46.0542 1204.07 46.0428 1204.52 46.0428C1204.98 46.0428 1205.44 46.0542 1205.92 46.0769L1205.34 48.4626C1205.2 48.4853 1204.91 48.508 1204.46 48.5307C1204 48.5307 1203.5 48.5421 1202.96 48.5648C1202.43 48.5648 1201.97 48.5648 1201.56 48.5648C1200.31 48.5648 1199.43 48.6102 1198.93 48.7011C1198.46 48.792 1198.09 48.9851 1197.84 49.2805C1197.53 49.6213 1197.22 50.1779 1196.92 50.9504C1196.63 51.7002 1196.38 52.6204 1196.17 53.7109C1195.99 54.7788 1195.89 55.9716 1195.87 57.2894L1195.29 56.8463C1195.76 55.9148 1196.49 55.2218 1197.47 54.7674C1198.47 54.2903 1199.56 54.0517 1200.74 54.0517C1202.56 54.0517 1204 54.4039 1205.07 55.1082C1206.14 55.8126 1206.9 56.7895 1207.35 58.0392C1207.83 59.2888 1208.07 60.7315 1208.07 62.3674C1208.07 64.3895 1207.83 66.1389 1207.35 67.6158C1206.9 69.0926 1206.11 70.2286 1205 71.0238C1203.91 71.819 1202.42 72.2166 1200.54 72.2166ZM1200.54 69.7969C1201.69 69.7969 1202.6 69.6265 1203.26 69.2857C1203.92 68.9222 1204.39 68.2065 1204.66 67.1386C1204.95 66.0708 1205.1 64.4917 1205.1 62.4014C1205.1 60.7656 1204.95 59.5273 1204.66 58.6867C1204.36 57.8233 1203.89 57.2439 1203.23 56.9486C1202.59 56.6305 1201.75 56.4715 1200.71 56.4715C1199.5 56.4715 1198.56 56.6532 1197.88 57.0167C1197.2 57.3803 1196.71 57.9937 1196.41 58.8571C1196.14 59.7205 1196 60.9019 1196 62.4014C1196 64.4917 1196.14 66.0708 1196.41 67.1386C1196.68 68.2065 1197.15 68.9222 1197.81 69.2857C1198.49 69.6265 1199.4 69.7969 1200.54 69.7969Z" fill="black"/>
  <path d="M1217.92 77.4309L1220.58 69.6947L1214.24 51.9388H1217.27L1221.84 66.4229H1221.98L1226.54 51.9388H1229.58L1222.9 70.5126L1220.92 77.4309H1217.92Z" fill="black"/>
  <path d="M1233.68 75.3179V69.3198C1233.93 69.3198 1234.32 69.2743 1234.84 69.1834C1235.39 69.0926 1235.84 68.8994 1236.2 68.6041C1236.43 68.4223 1236.61 68.1724 1236.75 67.8543C1236.89 67.5362 1237 67.0364 1237.09 66.3548C1237.2 65.6732 1237.31 64.6962 1237.4 63.4239L1238.32 51.9388H1250.38V69.3198H1253.07V75.3179H1250.25V71.7736H1236.51V75.3179H1233.68ZM1240.02 65.7072C1239.95 66.4797 1239.84 67.15 1239.68 67.718C1239.54 68.286 1239.3 68.8199 1238.93 69.3198H1247.55L1247.62 62.197L1247.55 54.3926H1240.94L1240.02 65.7072Z" fill="black"/>
  <path d="M1260.8 71.7736V51.9388H1263.63L1263.29 68.6722H1263.46L1272.18 51.9388H1275.79V71.7736H1272.96L1273.31 55.0401H1273.17L1264.41 71.7736H1260.8Z" fill="black"/>
  <path d="M1285.27 71.7736V51.9388H1288.09L1288.06 61.788L1288.09 71.7736H1285.27ZM1296.99 71.7736L1297.02 61.9584L1296.99 51.9388H1299.82V71.7736H1296.99ZM1285.5 62.8786V60.4248H1299.48V62.8786H1285.5Z" fill="black"/>
  <path d="M1320.52 71.7736L1312.58 61.788L1320.04 51.9388H1323.72L1315.68 61.7539V61.9243L1324.2 71.7736H1320.52ZM1309.89 71.7736L1310.06 61.788L1309.89 51.9388H1312.72L1312.54 61.788L1312.72 71.7736H1309.89Z" fill="black"/>
  <path d="M1331.34 77.4309L1334 69.6947L1327.66 51.9388H1330.7L1335.26 66.4229H1335.4L1339.97 51.9388H1343L1336.32 70.5126L1334.34 77.4309H1331.34Z" fill="black"/>
</svg>
